<?xml version="1.0" standalone="no"?>
<!DOCTYPE svg PUBLIC "-//W3C//DTD SVG 20010904//EN"
 "http://www.w3.org/TR/2001/REC-SVG-20010904/DTD/svg10.dtd">
<svg version="1.0" xmlns="http://www.w3.org/2000/svg"
 width="1500.000000pt" height="1057.000000pt" viewBox="0 0 1500.000000 1057.000000"
 preserveAspectRatio="xMidYMid meet">
<metadata>
Created by potrace 1.16, written by Peter Selinger 2001-2019
</metadata>
<g transform="translate(0.000000,1057.000000) scale(0.100000,-0.100000)"
fill="#000000" stroke="none">
<path d="M6578 8558 c-35 -39 -52 -78 -27 -62 7 4 10 1 7 -7 -3 -8 -19 -14
-39 -15 -19 0 -47 -8 -64 -17 -16 -10 -59 -33 -95 -53 -81 -44 -190 -116 -190
-124 0 -4 -28 -27 -62 -51 -35 -24 -74 -56 -86 -71 -15 -18 -34 -28 -51 -28
-27 0 -58 -24 -128 -100 -18 -19 -55 -55 -83 -79 -27 -24 -50 -49 -50 -56 0
-19 -49 -75 -65 -75 -18 0 -94 -88 -102 -118 -4 -18 1 -30 21 -48 31 -30 31
-30 4 -74 -14 -24 -21 -49 -19 -77 4 -78 -33 -123 -172 -217 -48 -31 -68 -39
-115 -41 -31 -2 -82 -9 -112 -15 -30 -7 -75 -13 -100 -15 -75 -6 -130 -17
-136 -26 -3 -5 -13 -9 -22 -9 -10 0 -34 -11 -54 -25 -20 -14 -42 -25 -49 -25
-10 0 -31 -17 -78 -61 -43 -42 -107 -126 -133 -177 -41 -79 -41 -79 -113 -87
-54 -5 -70 -3 -102 14 -21 11 -85 37 -142 57 -87 30 -108 34 -128 25 -20 -9
-32 -8 -55 3 -26 13 -34 13 -66 1 -48 -18 -250 -42 -327 -39 -58 3 -81 6 -175
20 -25 4 -56 8 -70 9 -14 1 -63 9 -110 18 -47 9 -154 23 -238 32 l-153 17 -37
-28 c-40 -31 -68 -33 -117 -8 -29 15 -33 14 -95 -21 -36 -20 -84 -45 -107 -56
-23 -10 -44 -28 -48 -38 -5 -17 -57 -42 -116 -55 -14 -3 -32 -18 -40 -32 -17
-32 -52 -48 -139 -64 -81 -14 -283 -55 -370 -75 -54 -13 -114 -38 -270 -114
-8 -4 -36 -42 -61 -84 -47 -77 -94 -138 -181 -235 -40 -45 -48 -60 -48 -93 0
-22 -7 -54 -17 -72 -9 -18 -17 -41 -19 -52 -1 -11 -6 -45 -11 -75 -13 -78 -10
-203 4 -207 8 -3 9 -12 2 -33 -6 -15 -9 -45 -7 -67 3 -39 12 -47 97 -83 15 -6
40 -19 57 -29 l32 -17 -42 -50 c-58 -70 -128 -223 -134 -291 -12 -142 74 -205
229 -169 35 8 72 18 82 21 27 11 21 -16 -14 -64 -26 -37 -30 -50 -28 -99 3
-107 -11 -195 -37 -225 -28 -34 -31 -73 -7 -100 16 -17 18 -38 16 -170 l-3
-151 36 -52 c29 -42 43 -53 73 -59 67 -12 177 -55 309 -120 72 -35 143 -67
157 -71 14 -3 28 -10 31 -15 3 -5 12 -9 21 -9 9 0 35 -9 57 -19 23 -11 79 -28
126 -39 47 -12 111 -30 143 -42 32 -11 67 -18 76 -15 15 5 20 -4 30 -55 10
-51 21 -70 61 -115 27 -29 54 -63 60 -75 6 -11 15 -18 19 -15 10 5 34 -19 26
-27 -9 -9 170 -148 190 -148 4 0 30 -12 59 -26 105 -54 277 -97 424 -108 79
-6 211 15 283 44 30 12 65 26 78 31 17 7 26 6 31 -2 5 -8 20 -9 44 -5 23 4 36
3 36 -4 0 -5 5 -10 10 -10 6 0 10 7 10 16 0 13 3 14 14 5 12 -10 21 -9 43 2
24 13 29 13 40 -2 11 -15 12 -15 13 1 0 13 8 16 38 13 20 -1 45 1 54 6 11 6
18 5 20 -3 8 -24 28 4 29 40 0 35 1 35 10 12 6 -14 8 -33 5 -42 -5 -22 10 -24
18 -2 3 8 10 13 15 9 6 -3 32 -7 60 -9 40 -3 50 -1 54 14 3 13 12 17 34 14 16
-2 123 -6 238 -10 189 -6 239 -8 312 -13 12 0 24 -9 27 -19 7 -19 71 -28 82
-11 3 5 12 9 20 9 8 0 12 -5 9 -10 -4 -6 7 -10 27 -9 101 4 239 -4 262 -16 14
-8 26 -10 26 -4 0 5 28 7 70 3 50 -5 70 -4 70 5 0 6 -5 11 -12 11 -6 0 -8 3
-5 6 4 4 14 1 23 -7 9 -7 43 -14 79 -14 36 -1 71 -8 80 -15 12 -10 15 -10 15
6 0 16 1 16 19 -2 17 -17 17 -21 4 -31 -12 -9 -8 -11 19 -9 18 2 35 4 38 5 5
1 6 27 1 69 0 6 -8 12 -16 12 -18 0 -20 16 -2 23 7 3 5 6 -5 6 -10 1 -18 -3
-18 -9 0 -5 -5 -10 -11 -10 -6 0 -8 8 -4 19 4 13 -8 32 -45 67 -27 27 -50 56
-50 64 0 10 -3 11 -8 4 -14 -22 -48 -34 -60 -22 -9 9 -12 9 -12 0 0 -8 -7 -9
-25 -2 -14 5 -25 6 -25 2 0 -4 -7 2 -15 12 -13 17 -15 18 -15 3 0 -21 -27 -23
-32 -2 -3 13 -6 13 -31 0 -17 -9 -44 -13 -70 -10 -44 5 -285 14 -374 15 -29 0
-53 5 -53 10 0 12 236 13 348 1 46 -4 71 -3 69 3 -5 15 -55 26 -60 13 -2 -7
-3 20 -2 58 1 39 0 60 -2 48 -3 -13 -9 -23 -14 -23 -5 0 -9 -7 -9 -16 0 -12
-6 -15 -25 -10 -28 7 -30 4 -15 -24 7 -13 6 -19 -6 -24 -8 -3 -12 -2 -9 4 3 6
2 10 -3 10 -6 0 -8 9 -5 20 4 14 0 20 -11 20 -9 0 -16 -4 -16 -10 0 -5 -9 -10
-20 -10 -11 0 -20 -6 -21 -12 0 -7 -5 2 -10 20 -7 24 -15 32 -33 32 -13 0 -27
-7 -30 -16 -5 -12 -10 -13 -19 -5 -8 6 -24 8 -37 6 -13 -2 -29 0 -35 5 -6 5
-52 9 -102 8 -85 -1 -113 4 -113 20 0 4 54 6 121 4 132 -3 191 9 262 56 21 14
46 26 55 27 10 0 23 4 29 8 6 4 33 -6 59 -23 26 -16 54 -30 62 -30 8 0 27 -11
44 -25 16 -14 38 -25 49 -25 11 0 32 -8 46 -18 23 -15 54 -17 218 -18 116 0
210 -5 241 -13 48 -11 53 -15 72 -59 48 -113 154 -246 308 -386 92 -84 92 -84
186 -106 51 -12 125 -36 163 -52 67 -30 77 -31 225 -34 l155 -4 45 -34 c25
-19 56 -46 69 -60 31 -33 93 -35 131 -6 l25 20 -40 0 c-58 0 -129 38 -215 114
-41 36 -115 101 -163 144 -49 42 -109 96 -134 120 -25 24 -62 54 -82 67 -49
31 -70 53 -137 137 -32 40 -75 93 -96 117 -55 63 -89 129 -95 186 -10 84 -83
180 -267 353 -25 23 -46 48 -46 55 0 7 -15 30 -34 51 -19 20 -36 44 -38 52 -2
8 -7 14 -13 12 -5 -2 -8 -10 -6 -18 1 -8 -3 -39 -10 -68 -11 -49 -11 -56 9
-93 12 -23 22 -46 22 -53 0 -6 52 -62 115 -124 63 -62 115 -119 115 -127 0 -7
11 -37 25 -67 14 -29 25 -67 25 -85 0 -22 8 -38 28 -53 28 -22 53 -52 164
-196 35 -45 87 -99 116 -120 29 -21 64 -56 77 -76 14 -21 32 -38 40 -38 8 0
18 -6 22 -14 12 -21 79 -63 121 -76 52 -17 172 -72 172 -79 0 -4 -53 -6 -117
-6 -110 1 -122 3 -183 32 -36 17 -99 38 -140 46 -108 22 -116 26 -225 125
-143 128 -203 205 -299 382 -13 25 -33 54 -45 64 -12 11 -24 36 -27 56 -4 27
-17 45 -53 75 -57 48 -66 67 -131 275 -28 91 -55 175 -60 188 -6 13 -10 39
-10 58 l0 35 88 -2 c160 -4 183 -1 189 21 6 23 30 25 56 5 11 -7 26 -11 35 -8
9 4 13 2 9 -4 -3 -5 5 -31 18 -56 18 -37 22 -54 15 -76 -11 -40 23 -73 77 -73
93 0 338 -131 383 -206 10 -16 34 -39 54 -51 58 -36 84 -76 117 -184 32 -104
75 -198 129 -284 17 -26 37 -69 45 -95 15 -51 133 -203 166 -213 23 -8 24 -14
3 -44 -16 -23 -16 -25 7 -43 13 -11 60 -38 104 -59 44 -22 96 -49 115 -60 19
-10 49 -19 66 -19 17 0 51 -6 75 -13 31 -10 71 -12 134 -7 50 4 94 3 99 -1 5
-5 16 -5 25 0 20 9 281 -4 341 -17 84 -19 196 -28 300 -23 120 6 1329 -10
1385 -19 107 -15 177 -40 239 -83 76 -52 91 -61 141 -88 22 -12 55 -32 73 -46
17 -13 36 -22 40 -19 5 3 26 -6 46 -20 49 -33 185 -101 239 -118 84 -28 214
-48 309 -48 53 0 102 3 107 7 6 3 11 1 11 -5 0 -6 5 -8 13 -3 6 4 17 9 22 10
69 17 150 45 192 66 29 15 58 27 65 27 7 0 43 20 80 45 37 25 73 45 79 45 7 0
24 14 38 31 14 16 35 31 46 33 11 2 20 7 20 12 1 5 9 24 18 42 18 34 37 42 37
17 0 -8 -6 -15 -14 -15 -22 0 -27 -29 -10 -58 l15 -27 -4 29 c-3 18 1 34 12
45 9 9 17 28 17 42 -1 13 2 24 6 24 4 0 16 14 25 32 10 18 29 45 43 60 13 15
26 36 27 46 2 10 9 25 16 32 18 17 28 45 68 180 28 97 33 125 33 232 1 78 5
122 11 119 6 -2 22 3 36 10 14 7 29 9 35 6 17 -13 82 -149 90 -188 4 -21 16
-47 27 -56 16 -15 21 -32 23 -91 1 -40 -2 -95 -7 -123 -26 -136 -27 -168 -8
-196 11 -14 19 -33 19 -41 0 -9 4 -19 10 -22 6 -3 7 1 4 10 -5 11 -2 14 10 9
9 -3 16 -10 16 -15 0 -5 9 -9 20 -9 11 0 20 -4 20 -9 0 -5 3 -18 6 -28 3 -10
-2 -7 -10 7 -9 15 -15 19 -16 10 0 -11 -12 -15 -44 -15 -25 0 -48 4 -52 8 -4
4 2 7 14 7 12 0 22 5 22 10 0 6 -3 9 -7 9 -20 -3 -23 3 -13 21 7 14 7 20 0 20
-5 0 -10 9 -10 20 0 13 -7 20 -20 20 -25 0 -25 -4 1 -29 30 -27 18 -65 -18
-56 -16 4 -22 2 -18 -5 3 -5 1 -18 -5 -27 -10 -16 -11 -16 -6 -1 3 11 1 15 -9
12 -7 -3 -15 0 -18 8 -2 7 -2 3 0 -9 4 -28 -1 -29 -25 -5 -9 9 -16 25 -14 35
4 18 -26 49 -40 41 -4 -2 -9 0 -13 6 -13 21 -26 9 -20 -19 4 -17 2 -32 -5 -36
-6 -4 -8 -16 -4 -27 4 -14 2 -18 -5 -14 -6 4 -11 0 -11 -9 0 -11 5 -15 14 -12
10 4 13 1 9 -9 -3 -8 1 -14 11 -14 9 0 16 -5 16 -11 0 -5 5 -7 10 -4 6 3 10 1
10 -4 0 -6 7 -11 16 -11 11 0 14 -6 9 -21 -5 -15 -4 -19 5 -14 6 4 10 16 7 26
-3 11 0 19 8 19 7 0 15 7 19 15 6 17 -9 21 -17 5 -3 -6 -4 -5 -3 2 4 20 58 20
72 0 15 -20 9 -33 -11 -25 -20 7 -19 -21 1 -37 13 -11 16 -10 21 8 3 12 11 22
19 22 8 0 11 -6 8 -15 -10 -24 20 -18 31 7 12 25 38 38 29 14 -7 -18 21 -23
31 -6 3 6 1 10 -4 10 -6 0 -11 7 -11 16 0 13 3 14 15 4 8 -6 20 -8 26 -4 9 5
10 1 7 -14 -5 -17 -2 -22 12 -22 10 0 20 3 23 8 2 4 2 1 1 -6 -2 -6 4 -12 14
-13 10 0 12 -3 5 -6 -7 -2 -13 -9 -13 -15 0 -6 6 -5 15 2 16 14 11 48 -9 63
-7 6 -4 7 7 3 10 -3 21 -6 23 -6 2 0 4 -8 4 -18 0 -11 8 -18 20 -19 20 -2 28
13 10 19 -14 5 2 26 24 30 10 1 21 -3 23 -10 3 -8 -1 -10 -12 -6 -13 6 -15 2
-9 -22 11 -43 28 -57 46 -36 9 9 20 26 26 37 11 19 11 19 12 -5 0 -20 5 -25
26 -26 18 -2 24 2 20 12 -6 17 3 18 38 4 21 -7 26 -6 26 5 0 8 5 15 11 15 7 0
18 8 25 18 10 14 15 15 25 4 11 -10 10 -12 -3 -12 -9 0 -18 -7 -21 -15 -5 -11
-1 -12 20 -4 18 6 30 6 39 -2 11 -9 14 -6 15 17 1 24 2 25 6 7 2 -13 10 -23
18 -23 8 0 11 7 8 20 -3 11 -1 20 5 20 5 0 12 -9 15 -20 3 -11 10 -20 15 -20
6 0 8 10 4 22 -5 22 -5 22 20 6 17 -11 29 -13 36 -6 6 6 12 6 16 -1 9 -14 26
-14 26 0 0 6 7 17 15 25 8 9 15 11 15 5 0 -6 7 -8 15 -5 8 4 15 1 15 -5 0 -6
5 -11 11 -11 11 0 9 32 -6 93 -5 17 -3 27 4 27 6 0 14 -18 17 -41 5 -28 10
-36 15 -27 8 11 11 11 18 -1 11 -17 41 -7 41 14 0 9 -5 13 -10 10 -5 -3 -10 1
-10 9 0 8 5 18 10 21 6 3 10 1 10 -6 0 -8 4 -8 15 1 13 11 14 10 9 -4 -8 -20
3 -21 22 -1 18 18 38 20 28 4 -4 -7 -1 -10 7 -7 8 3 15 14 17 25 4 25 57 39
79 22 7 -7 16 -9 20 -5 3 3 0 6 -8 7 -27 2 56 21 88 20 26 -1 38 7 65 40 42
52 65 64 164 83 43 8 93 21 109 28 64 27 153 96 225 173 63 67 88 105 149 225
40 80 87 186 103 235 58 177 98 330 98 375 0 58 -52 203 -89 250 l-28 36 13
64 c25 120 39 298 26 345 -11 43 -6 111 9 121 5 3 9 20 9 37 0 18 10 52 21 77
12 25 23 71 26 103 3 31 10 57 14 57 12 0 -22 87 -53 135 -34 52 -138 167
-214 235 -91 82 -254 215 -299 246 -22 15 -60 43 -85 63 -121 99 -283 172
-500 226 -76 19 -285 42 -455 50 -66 3 -174 10 -240 15 -66 5 -148 11 -183 14
-34 2 -74 11 -87 20 -27 18 -234 79 -305 91 -25 4 -60 15 -78 26 -44 25 -66
25 -53 1 7 -13 6 -23 -1 -30 -15 -15 -58 -16 -58 -2 0 6 6 10 14 10 9 0 12 7
10 18 -4 12 5 21 28 30 18 7 48 20 66 28 18 8 38 12 43 9 5 -4 9 -1 9 5 0 6 6
17 13 25 19 18 124 85 135 85 4 0 24 12 43 26 19 14 49 32 67 39 17 8 32 18
32 23 0 5 16 27 35 48 19 21 35 41 35 45 0 9 -38 19 -75 19 -56 1 -61 12 -29
70 l29 51 -30 24 c-29 24 -30 24 -50 5 -25 -24 -37 -25 -75 -5 -26 14 -33 13
-64 -2 -32 -15 -36 -15 -60 1 -17 11 -35 14 -52 10 -25 -6 -126 13 -219 41
l-40 12 81 79 c123 120 144 138 212 174 62 33 89 61 77 80 -4 7 -13 7 -25 0
-10 -5 -25 -7 -33 -4 -8 3 -32 -4 -52 -15 -21 -11 -42 -18 -48 -14 -5 3 -37
-21 -71 -54 -147 -143 -266 -243 -281 -237 -18 7 -18 6 56 94 54 64 166 210
193 252 22 34 9 61 -19 38 -8 -7 -23 -10 -34 -7 -24 6 -26 4 -86 -68 -27 -33
-56 -66 -63 -74 -7 -8 -38 -45 -69 -83 -30 -38 -60 -67 -66 -65 -13 4 -15 134
-4 180 6 23 4 29 -15 36 -20 7 -30 1 -71 -45 -62 -69 -86 -83 -103 -59 -10 14
-16 15 -36 5 -13 -7 -31 -19 -40 -28 -16 -14 -20 -13 -36 1 -10 10 -25 17 -34
17 -23 0 -48 33 -48 65 0 25 -2 27 -31 21 -17 -3 -40 -1 -51 5 -16 9 -24 6
-44 -12 -31 -29 -37 -22 -26 28 6 25 6 47 0 57 -5 10 -6 25 -2 34 4 9 6 21 5
26 -1 5 4 13 10 17 16 9 -6 39 -28 39 -8 0 -11 5 -8 10 4 7 13 7 26 0 13 -7
19 -7 19 0 0 5 -7 10 -15 10 -19 0 -19 9 0 34 22 29 19 38 -20 65 -19 13 -35
30 -35 37 0 8 -7 14 -15 14 -21 0 -19 37 4 67 l20 24 -42 44 c-23 24 -56 60
-73 81 -30 36 -32 37 -63 25 -27 -12 -34 -11 -57 4 -14 9 -34 15 -44 12 -21
-5 -40 29 -40 73 0 90 -39 -20 -56 -158 -4 -38 -11 -55 -26 -63 -35 -19 -120
-41 -135 -35 -8 3 -30 -6 -49 -21 -35 -26 -35 -26 -72 -8 -80 38 -210 77 -272
81 -194 12 -364 25 -369 29 -13 7 -322 25 -531 30 -118 3 -273 7 -345 10 -439
16 -443 16 -457 2 -25 -25 -130 -109 -132 -105 -1 2 -11 20 -21 42 -35 68
-114 148 -190 193 -69 40 -101 72 -133 133 -65 121 -112 221 -112 237 0 45
-52 122 -130 193 -44 39 -98 98 -121 131 -23 32 -45 59 -49 59 -4 0 -15 19
-25 42 -9 24 -36 64 -60 89 -23 25 -50 59 -58 75 -22 44 -47 61 -97 67 -42 5
-46 4 -82 -35z m103 -39 c25 -21 57 -60 70 -86 13 -26 33 -59 45 -73 11 -14
31 -59 43 -100 13 -41 35 -91 50 -110 31 -42 47 -67 64 -100 6 -13 53 -65 102
-115 71 -71 100 -108 134 -175 43 -84 102 -168 225 -325 124 -158 175 -277
182 -430 2 -55 6 -137 9 -183 2 -45 0 -80 -5 -77 -21 13 -54 144 -57 230 -2
50 -5 101 -7 115 -2 14 -4 33 -5 42 0 10 -9 25 -19 35 -10 10 -29 34 -42 53
-13 19 -43 56 -67 82 -24 26 -43 54 -43 63 0 8 -4 15 -9 15 -9 0 -81 94 -81
106 0 11 -119 169 -149 198 -17 17 -31 35 -31 41 0 7 -9 20 -21 31 -12 10 -32
39 -46 64 -14 25 -55 75 -92 111 -36 36 -77 81 -90 99 -39 52 -129 274 -142
347 -13 78 -31 113 -58 113 -15 0 -24 -16 -41 -67 -24 -73 -72 -174 -125 -263
-34 -56 -53 -113 -85 -254 -11 -45 -28 -119 -39 -166 -57 -244 -31 -519 83
-855 76 -223 127 -438 134 -557 2 -53 1 -105 -3 -115 -5 -10 -9 -45 -10 -78
-4 -161 -2 -153 -30 -147 -14 2 -28 8 -30 12 -3 5 2 39 11 77 30 122 17 284
-32 433 -25 73 -32 100 -74 265 -29 114 -38 145 -84 280 -39 118 -40 122 -40
260 1 143 11 323 20 337 7 12 34 169 49 289 14 114 40 183 98 259 17 23 41 57
52 75 11 18 33 54 48 79 18 30 29 64 32 97 1 27 8 55 14 63 6 7 8 16 4 19 -10
10 18 38 31 30 6 -3 32 -23 57 -44z m-348 -185 l-28 -28 35 -7 c22 -5 41 -3
50 4 8 6 4 -1 -9 -16 -14 -15 -19 -27 -12 -27 17 0 -19 -47 -41 -53 -17 -5
-23 -28 -20 -72 2 -15 0 -17 -7 -6 -5 8 -16 11 -24 8 -9 -3 -18 1 -21 9 -4 10
0 14 11 12 11 -2 19 7 24 27 5 18 21 38 41 49 18 11 27 21 20 24 -10 3 -10 7
-1 18 6 8 8 14 3 14 -4 0 -18 -12 -31 -27 -19 -24 -24 -26 -34 -13 -8 12 -9
10 -5 -11 5 -23 3 -25 -25 -23 -21 1 -32 -3 -35 -14 -3 -10 -10 -25 -15 -34
-13 -26 -11 -30 11 -23 16 5 20 2 20 -14 0 -12 -4 -21 -10 -21 -5 0 -10 -4
-10 -10 0 -16 27 -12 34 5 7 20 26 19 26 -1 0 -9 5 -12 13 -8 8 5 8 2 -2 -9
-13 -17 -37 -24 -27 -9 2 4 -11 8 -30 8 -19 0 -34 -2 -35 -5 -4 -29 -10 -43
-23 -57 -9 -8 -14 -20 -10 -25 3 -6 0 -16 -6 -24 -9 -11 -9 -15 -1 -15 6 0 11
5 11 10 0 6 8 10 18 10 15 -1 15 -2 -2 -11 -15 -9 -16 -13 -5 -21 10 -7 8 -8
-7 -3 -15 4 -24 0 -28 -11 -5 -12 -2 -15 11 -10 15 6 15 4 -2 -14 -27 -30 -13
-33 18 -4 26 24 27 24 27 4 0 -12 -4 -19 -9 -15 -5 3 -13 1 -16 -5 -4 -6 -1
-9 7 -8 8 2 14 -8 16 -24 2 -16 -1 -28 -7 -28 -6 0 -11 -5 -11 -11 0 -6 7 -8
16 -5 14 5 15 4 5 -8 -7 -8 -10 -19 -7 -25 3 -5 -1 -8 -9 -7 -18 3 -32 16 -17
16 7 0 12 5 12 11 0 6 -6 9 -12 7 -15 -5 -21 -68 -6 -68 5 0 -4 -17 -21 -37
-40 -48 -30 -58 13 -11 27 30 35 33 49 23 9 -7 17 -16 17 -20 0 -4 -7 -2 -16
6 -13 11 -20 7 -50 -26 -24 -27 -31 -42 -24 -50 8 -9 6 -14 -5 -19 -11 -4 -14
-13 -10 -26 7 -21 -10 -28 -18 -7 -4 9 -6 9 -6 0 -1 -6 4 -15 9 -18 17 -10 11
-25 -10 -25 -11 0 -20 -4 -20 -10 0 -5 7 -7 15 -4 11 5 13 2 8 -12 -5 -14 -3
-16 10 -11 14 5 16 2 11 -18 -7 -28 7 -33 26 -10 14 17 20 95 8 111 -11 15 17
44 40 44 15 -1 15 -2 -2 -11 -13 -8 -15 -14 -7 -18 9 -6 9 -15 1 -36 -6 -16
-9 -34 -6 -41 3 -7 -9 -54 -25 -106 -16 -51 -37 -124 -45 -163 -8 -38 -29
-101 -46 -140 -17 -38 -37 -95 -44 -125 -6 -30 -21 -86 -32 -125 -11 -38 -23
-90 -26 -114 -4 -25 -19 -74 -33 -110 -15 -36 -32 -91 -39 -121 -27 -116 -38
-150 -46 -150 -5 0 -7 -4 -4 -8 5 -8 -9 -137 -19 -180 -4 -17 -11 -22 -22 -18
-12 5 -13 4 -5 -7 9 -11 5 -20 -17 -41 -17 -17 -34 -25 -41 -21 -9 5 -10 2 -6
-12 4 -13 -2 -27 -18 -42 l-24 -22 -21 28 -22 28 17 -32 c14 -25 15 -36 7 -44
-9 -9 -16 -9 -28 1 -20 17 -19 1 2 -22 15 -17 15 -20 3 -28 -23 -15 -28 -12
-32 18 -2 16 4 36 15 49 11 12 16 26 12 32 -9 16 -25 14 -19 -2 3 -8 -2 -20
-11 -27 -9 -7 -15 -8 -15 -2 0 6 6 12 13 15 8 3 2 14 -17 33 -29 29 -29 29
-13 3 23 -38 9 -44 -25 -12 -15 15 -28 24 -28 20 0 -4 14 -20 32 -36 25 -23
32 -37 33 -69 0 -23 4 -44 7 -47 3 -3 -8 -19 -24 -36 -33 -32 -54 -27 -60 14
-4 26 -33 34 -42 12 -3 -10 4 -30 19 -49 27 -35 30 -46 16 -46 -6 0 -18 13
-27 30 -10 16 -24 32 -32 35 -7 3 0 -12 17 -34 31 -38 32 -61 2 -39 -13 10
-14 10 -3 -2 6 -8 12 -23 12 -34 -1 -19 -4 -17 -30 12 -40 44 -50 41 -11 -3
41 -47 40 -67 -1 -29 l-32 29 27 -37 c31 -42 33 -48 13 -48 -8 0 -24 12 -35
26 -12 15 -21 23 -21 19 0 -4 11 -20 25 -37 14 -16 25 -39 25 -50 0 -21 0 -21
-22 -2 -22 18 -21 17 1 -8 16 -19 21 -32 16 -45 -7 -15 -9 -16 -12 -2 -4 15
-63 56 -63 43 0 -4 16 -31 36 -61 32 -48 35 -58 24 -78 -13 -25 -17 -128 -5
-163 6 -22 5 -23 -44 -19 -28 2 -54 7 -58 11 -3 3 -21 6 -38 6 -36 0 -61 22
-49 42 5 10 4 10 -6 1 -11 -10 -16 -9 -26 5 -11 14 -16 15 -33 4 -12 -7 -21
-8 -21 -3 0 5 4 11 8 13 5 2 12 17 16 33 5 21 4 26 -3 15 -8 -12 -13 -12 -23
-2 -7 7 -13 16 -13 20 -3 39 -18 103 -26 107 -5 4 -9 0 -9 -8 0 -8 -7 -17 -15
-21 -8 -3 -15 -1 -15 4 0 6 4 10 9 10 5 0 19 24 32 53 29 64 33 76 21 58 -5
-7 -15 -10 -21 -7 -7 5 -10 0 -8 -13 1 -11 -2 -21 -8 -23 -5 -2 -10 9 -10 24
-1 15 2 25 6 22 9 -5 23 35 15 43 -3 3 2 19 10 35 9 17 11 27 5 24 -18 -11
-13 9 9 37 29 37 24 47 -6 12 l-26 -30 21 39 c12 21 20 41 17 43 -2 3 -12 -10
-22 -29 -10 -19 -19 -27 -22 -20 -2 7 2 20 10 29 9 12 9 15 1 9 -8 -4 -13 -2
-13 6 0 8 6 20 13 27 10 11 10 13 0 7 -14 -8 -18 15 -6 28 10 10 13 66 4 66
-4 0 -14 -15 -23 -32 l-16 -33 0 36 c0 38 -59 174 -97 224 -26 36 -45 102 -24
90 7 -5 4 3 -6 16 -20 27 -92 75 -106 71 -13 -3 -11 12 6 34 23 31 17 40 -10
14 -33 -31 -32 -8 2 38 l27 37 -38 -35 c-21 -20 -34 -28 -31 -17 4 10 2 17 -5
17 -6 0 -8 5 -4 13 6 8 3 8 -9 -2 -14 -11 -23 -8 -69 25 -29 21 -54 42 -56 46
-2 5 -10 8 -18 8 -8 0 -14 7 -14 15 0 8 -4 15 -10 15 -5 0 -10 10 -10 23 0 12
-8 27 -19 34 -18 11 -35 63 -20 63 4 0 9 -5 11 -10 2 -6 9 0 17 12 13 21 13
22 -1 10 -13 -10 -17 -10 -22 4 -11 29 -6 42 34 85 22 23 37 45 34 48 -3 3 -8
1 -12 -5 -4 -6 -15 -13 -25 -17 -15 -6 -16 -4 -7 13 5 10 15 22 20 25 6 3 19
25 29 48 22 48 163 197 186 197 13 0 14 -4 5 -21 -24 -44 -1 -27 34 26 27 39
43 55 60 55 12 0 27 5 34 12 6 6 15 8 19 4 5 -4 -2 -16 -14 -26 -33 -26 -28
-36 5 -11 15 12 41 31 57 42 24 18 23 15 -7 -14 -41 -38 -53 -64 -15 -31 12
11 35 28 51 38 25 16 28 16 23 2 -4 -9 -2 -16 4 -16 6 0 8 -7 5 -16 -3 -8 -2
-12 3 -9 14 8 81 -27 74 -38 -4 -6 10 2 30 17 30 23 37 25 37 12 0 -13 5 -16
21 -11 19 6 21 4 16 -14 -4 -18 -2 -19 13 -11 24 13 33 13 25 0 -3 -5 -2 -10
4 -10 6 0 8 -6 5 -14 -3 -8 -1 -17 5 -21 6 -3 11 -11 11 -16 0 -6 -4 -8 -9 -4
-5 3 -12 1 -15 -4 -4 -5 -2 -12 3 -15 5 -4 12 -2 16 4 10 15 45 32 45 21 0 -5
-12 -24 -27 -43 -15 -18 -20 -27 -13 -20 20 17 33 15 26 -4 -5 -14 -4 -15 9
-4 9 7 13 19 11 27 -3 8 6 25 21 39 28 26 46 25 19 -1 -17 -18 -22 -45 -7 -45
6 0 13 5 17 12 5 8 10 6 16 -8 7 -15 8 -13 5 9 -3 17 0 27 9 27 7 0 16 5 20
12 4 6 3 8 -3 5 -6 -4 -13 -1 -16 6 -4 10 2 13 21 9 23 -4 25 -3 15 10 -7 8
-10 17 -7 21 10 10 -7 47 -22 47 -8 0 -14 7 -14 15 0 19 -19 20 -26 1 -3 -8
-14 -14 -24 -13 -10 1 -16 5 -14 9 3 4 -2 8 -10 8 -10 0 -13 -6 -10 -15 9 -23
-14 -18 -26 6 -7 11 -18 18 -25 15 -8 -3 -17 -1 -20 5 -4 5 -10 7 -15 4 -4 -3
-10 4 -13 15 -3 11 -13 20 -22 20 -10 0 -13 -4 -8 -12 12 -20 12 -38 1 -38 -5
0 -12 9 -15 20 -5 20 -14 24 -43 21 -12 -1 -12 0 1 9 10 5 34 10 55 11 87 3
156 12 145 19 -9 5 0 17 27 39 22 17 45 31 51 31 6 0 18 11 27 25 9 14 20 25
25 25 20 0 6 -18 -47 -59 -30 -24 -53 -46 -50 -49 4 -3 15 4 27 17 11 12 37
32 58 46 25 15 51 46 75 88 42 77 106 156 106 133 0 -9 8 -16 20 -16 11 0 20
4 20 10 0 5 -6 7 -14 4 -7 -3 -16 3 -20 13 -5 11 6 35 31 73 21 30 45 69 52
85 12 27 14 28 20 11 7 -18 8 -18 14 -2 4 10 7 26 7 35 0 10 10 31 21 45 17
22 24 25 31 14 7 -9 8 -8 4 6 -5 14 4 30 30 57 21 21 42 35 47 32 6 -3 7 -1 4
4 -4 6 2 22 13 36 13 17 17 28 10 32 -6 4 -8 16 -4 28 6 22 6 22 -9 2 -11 -15
-12 -23 -5 -33 8 -9 8 -16 -1 -25 -7 -7 -40 -43 -74 -81 -34 -37 -79 -86 -99
-109 -21 -22 -38 -48 -38 -58 0 -10 -7 -24 -15 -32 -8 -8 -30 -44 -50 -80 -41
-75 -68 -95 -59 -44 10 57 14 64 25 47 9 -12 10 -12 5 3 -5 16 57 163 75 177
6 5 22 54 24 75 4 37 24 67 77 117 33 32 64 56 68 53 3 -2 13 11 20 30 7 18
21 36 32 38 15 4 17 1 12 -21 -4 -21 -3 -24 5 -12 10 13 11 13 11 0 0 -13 1
-13 10 0 13 20 13 33 0 25 -5 -3 -10 0 -10 8 0 8 15 20 33 27 17 7 46 27 64
44 42 42 90 77 107 80 7 1 38 25 67 54 30 29 65 56 79 59 14 3 34 12 44 19 31
21 30 9 -1 -22z m505 -335 c18 -25 53 -62 78 -83 62 -52 107 -125 142 -231 19
-57 59 -138 108 -220 85 -143 123 -223 117 -243 -3 -7 2 -23 9 -35 15 -23 40
-87 33 -87 -12 0 -95 134 -110 179 -9 29 -24 65 -31 80 -8 14 -14 33 -14 41 0
8 -17 44 -37 80 -67 121 -73 134 -73 155 0 12 -4 25 -9 31 -5 5 -14 27 -21 48
-20 62 -79 156 -106 168 -13 6 -26 20 -30 30 -3 10 -22 26 -43 34 -33 13 -40
22 -59 77 -26 74 -28 94 -4 51 9 -17 32 -51 50 -75z m-403 -126 c-11 -26 -8
-55 6 -64 7 -4 9 -15 5 -25 -4 -11 -7 -98 -7 -194 0 -131 6 -205 21 -295 12
-66 23 -136 26 -155 4 -31 3 -32 -6 -11 -6 13 -17 38 -24 55 -20 44 -23 56
-46 188 -33 197 -36 317 -10 426 12 50 26 92 32 92 6 0 7 -7 3 -17z m295 -213
c10 -5 62 -76 116 -157 210 -318 389 -530 550 -654 40 -31 60 -56 88 -115 20
-42 38 -89 40 -105 1 -16 6 -32 9 -36 22 -21 -20 -24 -320 -23 -181 1 -354 -1
-385 -5 -64 -9 -82 0 -92 41 -4 14 -24 54 -46 87 -21 34 -53 98 -70 142 -17
44 -36 85 -41 92 -12 14 -68 227 -82 312 -9 54 -8 71 7 113 33 93 118 257 149
288 33 32 47 36 77 20z m-480 -160 c-20 -170 -1 -339 54 -477 13 -34 27 -77
31 -95 13 -67 68 -276 95 -363 67 -210 83 -338 55 -450 -24 -98 -25 -99 -61
-73 l-30 21 19 40 c29 62 36 129 22 241 -9 71 -22 123 -43 172 -17 39 -36 92
-42 120 -6 27 -22 85 -36 129 -21 65 -23 87 -16 120 12 53 9 91 -10 112 -61
70 -98 187 -98 313 0 68 49 285 62 272 3 -4 3 -41 -2 -82z m3875 -26 c11 0 30
-5 42 -12 28 -15 66 -15 81 0 15 15 43 -9 77 -68 14 -24 30 -44 35 -44 6 0 9
-9 7 -19 -3 -18 -11 -36 -60 -136 -11 -22 -35 -54 -54 -70 -42 -37 -84 -144
-88 -227 -4 -74 -14 -118 -27 -118 -5 0 -12 9 -15 20 -3 11 -10 20 -15 20 -5
0 -7 -4 -4 -9 3 -5 -1 -11 -8 -14 -15 -6 -28 6 -41 38 -7 19 -8 18 -14 -5 l-7
-25 -13 23 c-7 13 -15 21 -18 18 -3 -3 -17 4 -32 15 -25 20 -26 20 -41 2 -22
-27 -49 -35 -65 -20 -17 17 -4 40 18 31 22 -8 44 44 28 66 -24 32 -52 102 -47
116 3 8 13 14 21 14 9 0 13 -5 10 -11 -4 -6 2 -5 14 2 11 8 23 26 26 41 4 15
11 31 16 34 6 4 4 13 -6 24 -14 16 -14 18 2 31 17 13 17 13 4 -6 -13 -18 -12
-17 8 2 13 11 24 32 25 45 1 14 7 23 17 23 29 0 112 100 123 148 7 30 -9 38
-19 8 -3 -11 -13 -25 -21 -32 -13 -11 -15 -5 -10 52 2 35 5 71 5 79 1 9 7 5
14 -10 7 -14 22 -25 32 -26z m-1440 -79 c127 -4 246 -9 265 -10 150 -11 201
-17 230 -25 18 -5 36 -7 41 -5 4 3 40 1 81 -4 40 -6 103 -13 140 -16 56 -5 66
-9 62 -23 -5 -15 -4 -15 6 1 15 23 32 22 125 -12 113 -41 131 -51 150 -88 l18
-32 -44 -53 c-24 -29 -71 -82 -105 -118 -34 -36 -77 -83 -95 -105 -19 -22 -37
-41 -41 -43 -16 -7 -7 -79 16 -128 25 -55 89 -121 230 -243 50 -42 138 -124
198 -182 59 -58 142 -132 185 -165 43 -32 89 -69 103 -82 14 -14 53 -45 87
-71 34 -25 106 -82 159 -126 136 -113 164 -134 188 -141 12 -4 38 -20 59 -36
36 -29 156 -112 267 -185 30 -20 78 -51 105 -69 28 -18 71 -40 95 -49 25 -8
59 -22 76 -30 43 -20 217 -46 349 -52 l110 -5 75 42 c41 22 77 45 78 51 2 5 9
15 16 22 80 82 107 218 64 319 -15 36 -18 52 -10 57 7 4 146 6 310 5 301 -2
347 -6 501 -48 38 -11 58 -12 70 -4 20 12 202 -45 289 -92 151 -81 571 -417
671 -537 59 -71 95 -122 89 -128 -2 -2 -20 5 -41 15 -79 39 -224 64 -367 65
-74 0 -162 -4 -195 -8 -33 -4 -130 -8 -215 -8 -85 0 -216 -4 -290 -10 -74 -6
-198 -11 -275 -11 -197 1 -144 -16 185 -57 47 -6 118 -16 158 -21 41 -6 131
-13 200 -16 70 -3 134 -8 142 -11 8 -3 62 -7 120 -8 212 -5 428 -38 447 -68 4
-6 6 -30 6 -52 l-2 -40 13 39 c26 83 26 -2 -1 -149 -3 -16 -7 -47 -10 -67 -5
-37 -6 -38 -47 -38 -56 0 -276 -29 -295 -39 -9 -5 -41 -14 -71 -21 -118 -27
-239 -114 -288 -206 -20 -38 -40 -107 -56 -194 -23 -129 -23 -167 0 -185 10
-8 22 -15 27 -15 4 0 7 -7 7 -15 0 -9 -10 -16 -27 -16 -27 -2 -27 -2 -3 -6 24
-4 25 -7 22 -62 l-4 -59 -266 -6 c-147 -3 -302 -8 -344 -10 -75 -4 -102 6 -55
19 12 4 41 15 64 26 24 10 46 19 50 19 22 0 83 22 83 30 0 5 -14 4 -32 -2 -77
-24 -174 -63 -188 -74 -22 -17 -46 -23 -130 -29 -96 -8 -219 -23 -246 -31 -21
-5 -51 25 -112 113 l-22 31 42 -1 c31 -1 44 3 46 14 2 13 -6 14 -55 9 -40 -5
-61 -3 -68 5 -21 26 -163 124 -235 162 -92 50 -271 124 -365 151 -82 25 -225
40 -225 25 0 -6 33 -13 73 -15 39 -3 92 -12 117 -20 25 -8 65 -21 90 -28 39
-12 99 -39 336 -151 23 -11 51 -27 62 -37 12 -9 46 -35 77 -56 30 -22 55 -46
55 -53 0 -8 8 -17 19 -21 46 -18 111 -138 88 -161 -8 -8 -6 -11 4 -11 37 0 70
-79 109 -252 19 -84 26 -238 16 -333 -3 -22 -7 -78 -11 -125 -3 -47 -8 -100
-11 -117 -3 -18 -1 -33 4 -33 5 0 12 22 16 50 4 27 11 52 16 55 14 9 11 -43
-4 -85 -12 -33 -15 -35 -52 -32 -21 2 -41 6 -43 8 -2 2 0 19 6 37 6 20 9 125
7 258 -3 255 -10 300 -75 464 -42 105 -45 108 -154 218 -227 228 -445 318
-805 333 -209 9 -368 -8 -500 -52 -324 -110 -602 -303 -738 -511 -51 -78 -143
-267 -162 -333 -7 -25 -20 -90 -29 -145 -16 -98 -17 -100 -45 -103 -16 -2 -39
-1 -53 3 -23 5 -24 9 -18 53 4 26 13 74 21 107 8 33 16 69 18 80 9 48 36 135
50 163 9 17 16 38 16 47 0 8 5 15 10 15 6 0 10 8 10 18 1 19 89 168 135 227
46 59 154 176 183 199 15 12 34 27 42 34 48 41 87 66 191 125 120 67 202 100
279 112 60 10 86 24 43 25 -46 0 -200 -54 -290 -102 -273 -146 -436 -310 -586
-588 -61 -114 -128 -327 -143 -453 l-6 -52 -234 -1 c-192 0 -231 2 -222 13 6
7 17 13 24 13 8 0 14 5 14 10 0 14 -13 13 -28 -2 -9 -9 -12 -8 -13 7 0 13 -5
8 -14 -15 l-13 -35 -1 40 c-1 47 -22 35 -23 -14 -1 -17 -4 -31 -8 -31 -12 0
-19 26 -14 52 3 20 2 19 -8 -4 -15 -35 -32 -37 -24 -3 9 36 -9 31 -20 -6 -5
-17 -13 -29 -19 -27 -5 2 -9 5 -9 8 12 43 11 49 -4 18 -20 -44 -48 -62 -39
-26 3 13 8 34 11 48 4 14 -5 1 -19 -28 -13 -28 -29 -52 -35 -52 -14 0 -13 8 6
64 9 26 14 50 11 53 -3 3 -11 -14 -17 -37 -18 -65 -32 -90 -51 -90 -13 0 -17
5 -13 18 5 15 3 14 -10 -2 -27 -33 -30 -9 -7 50 12 31 19 59 17 62 -5 5 -33
-58 -43 -96 -5 -23 -28 -40 -39 -30 -3 3 4 29 16 57 11 28 20 57 19 64 0 7
-13 -19 -28 -58 -16 -40 -36 -71 -45 -73 -13 -3 -13 4 4 54 22 64 24 72 11 59
-5 -6 -16 -34 -26 -62 -9 -29 -21 -53 -27 -53 -6 0 -8 6 -5 14 3 8 8 32 11 53
5 31 2 28 -16 -22 -19 -53 -22 -57 -28 -35 -6 24 -7 24 -14 4 -4 -15 -15 -21
-32 -21 -22 0 -25 3 -19 21 9 28 17 85 9 66 -45 -108 -61 -99 -24 13 15 46 31
115 35 152 10 93 19 115 44 108 14 -4 22 -14 22 -32 l2 -26 4 28 c3 19 9 27
18 23 8 -3 16 0 19 7 3 9 8 8 15 -3 8 -11 11 -2 11 38 0 28 5 52 10 52 6 0 10
-6 11 -12 0 -10 2 -10 6 0 4 10 8 10 19 1 11 -9 14 -8 14 2 0 21 50 21 51 0 1
-9 4 -5 8 9 4 14 16 26 26 28 11 2 27 6 35 9 8 3 25 7 38 9 20 2 22 -2 22 -37
0 -47 -17 -52 -23 -6 -2 18 -4 9 -4 -23 -1 -30 3 -66 8 -80 7 -21 8 -19 4 13
-4 41 6 49 23 15 8 -18 11 -19 11 -5 1 22 17 22 30 -1 10 -16 10 -15 11 3 0
11 5 27 10 35 7 12 11 10 19 -10 5 -14 10 -18 10 -10 1 29 -34 58 -62 53 -25
-5 -27 -3 -27 29 0 28 5 37 25 46 40 19 45 15 47 -35 l1 -48 6 55 7 55 7 -45
c14 -91 15 -94 14 -26 -1 48 2 71 11 73 9 4 12 -12 12 -56 0 -33 5 -63 10 -66
7 -5 9 14 4 58 -4 43 -3 67 5 71 7 5 11 -4 12 -26 0 -18 4 -42 9 -53 6 -14 8
-5 7 30 -1 28 2 50 8 50 6 0 10 -12 11 -27 1 -45 14 -45 14 0 0 46 19 59 21
15 2 -27 2 -27 6 -3 7 37 23 49 23 17 0 -15 5 -27 10 -27 6 0 10 10 10 23 0
26 38 47 89 48 20 0 58 6 85 12 41 10 51 17 59 40 6 19 6 32 -1 39 -14 14 -89
27 -99 18 -9 -8 -224 -52 -343 -70 -41 -6 -106 -17 -145 -25 -38 -7 -98 -19
-131 -25 -47 -9 -74 -9 -115 -1 -49 11 -195 26 -484 51 -60 5 -150 14 -200 19
-49 5 -150 12 -222 15 -158 7 -186 12 -179 35 13 40 34 219 29 243 -5 25 22
122 68 243 11 28 26 99 34 160 11 77 21 115 34 130 27 30 55 91 75 165 15 58
25 73 92 142 72 75 223 188 250 188 7 0 44 20 81 45 37 25 71 44 76 42 5 -1
19 -33 31 -70 32 -102 137 -211 314 -325 34 -22 59 -42 56 -45 -3 -3 0 -8 7
-13 7 -4 10 -3 6 3 -5 8 20 11 76 10 45 0 98 3 117 7 38 8 60 35 147 179 40
67 50 77 67 72 12 -4 40 -8 64 -9 26 -2 51 -11 65 -24 12 -11 42 -32 66 -45
48 -28 77 -25 156 16 33 17 93 34 175 52 9 2 44 15 79 29 63 25 101 33 101 19
0 -3 -14 -37 -32 -75 -17 -37 -29 -69 -27 -71 2 -2 31 -12 63 -23 l60 -21 33
-79 c24 -58 31 -87 27 -111 -4 -21 -1 -39 10 -55 19 -26 22 -175 6 -297 -11
-80 -8 -90 14 -72 9 7 18 52 25 129 12 115 46 255 79 320 15 32 15 36 -1 64
-9 16 -17 40 -17 52 0 16 -13 32 -39 49 -83 55 -109 85 -131 153 -27 84 -24
190 7 231 19 27 25 28 134 35 125 8 155 17 192 56 67 71 56 186 -28 297 -180
236 -229 297 -348 433 -93 107 -143 168 -302 364 -185 228 -248 300 -304 344
-59 46 -139 79 -172 71 -10 -3 -21 -2 -24 2 -2 4 -89 11 -192 15 -197 7 -251
9 -553 27 -282 16 -285 16 -287 42 -1 12 -7 49 -12 82 -6 33 -13 100 -16 149
-3 48 -10 96 -15 106 -5 10 -14 39 -20 64 -9 42 -7 59 21 153 36 122 62 171
93 178 11 3 62 6 111 8 85 2 168 0 740 -18z m-961 -434 c5 -7 10 -43 11 -80 8
-222 19 -298 46 -306 26 -9 24 -25 -3 -25 -14 0 -49 23 -86 56 -63 56 -77 81
-28 49 22 -15 29 -15 42 -4 13 10 15 24 10 64 -4 27 -13 120 -21 205 -9 85
-17 171 -20 190 -2 19 6 -3 18 -50 12 -47 26 -91 31 -99z m-1134 -151 c35
-105 87 -251 110 -310 43 -115 104 -410 93 -460 -6 -32 10 -42 21 -14 13 33
17 6 6 -37 l-11 -44 -72 7 c-113 10 -167 20 -174 31 -4 7 10 7 43 2 75 -13
154 -15 154 -4 0 5 -6 9 -14 9 -20 0 -26 22 -15 66 14 63 10 145 -11 212 -11
35 -20 75 -20 90 0 14 -8 51 -19 81 -26 78 -47 150 -77 261 -14 52 -36 124
-49 160 -28 76 -55 180 -55 206 1 11 16 -28 34 -86 19 -58 44 -134 56 -170z
m-3782 75 c56 -14 129 -26 164 -26 126 -3 125 -17 -2 -18 -99 0 -137 4 -184
19 l-58 20 -67 -31 c-78 -37 -80 -38 -115 -63 -15 -10 -30 -16 -33 -12 -9 9
37 56 72 73 22 11 109 56 121 62 1 1 46 -10 102 -24z m1153 -61 c-19 -96 -22
-124 -13 -124 5 0 15 38 22 85 7 47 17 88 22 92 10 5 6 -33 -11 -107 -5 -22
-5 -42 -1 -45 9 -6 30 81 30 125 0 17 4 30 9 30 17 0 22 -17 12 -42 -16 -43
-22 -98 -11 -98 5 0 10 10 10 21 0 17 3 19 14 10 11 -9 15 -3 20 34 6 35 11
45 26 45 10 0 22 -5 26 -11 4 -8 0 -9 -15 -4 -15 4 -21 2 -21 -9 0 -8 -3 -21
-6 -30 -3 -9 -1 -16 5 -16 6 0 11 9 11 21 0 11 4 17 10 14 6 -4 17 -2 24 4 10
8 22 5 47 -12 40 -27 42 -52 10 -118 -23 -47 -26 -63 -11 -54 13 8 13 3 -5
-36 l-16 -34 6 30 5 30 -22 -29 c-73 -91 -177 -172 -235 -181 -42 -7 -110 -36
-318 -138 -153 -74 -148 -73 -272 -42 -29 8 -85 12 -125 11 -61 -3 -180 5
-263 18 -11 1 -38 -1 -60 -6 -22 -6 -47 -11 -56 -13 -9 -2 -35 1 -57 6 -32 7
-49 5 -87 -12 -26 -11 -49 -19 -51 -16 -10 10 9 37 26 37 11 0 22 5 25 10 3 6
13 10 22 10 9 0 22 8 29 18 9 11 13 13 14 4 0 -7 5 -10 10 -7 6 3 10 0 10 -7
1 -8 5 -7 14 5 11 14 15 15 19 5 4 -8 8 -6 12 9 4 11 14 23 23 26 15 3 49 73
40 82 -2 2 -52 -1 -112 -6 -117 -10 -147 -3 -110 27 16 13 16 15 2 10 -15 -4
-18 1 -18 28 0 27 -7 38 -34 57 -19 13 -32 27 -30 31 3 5 -2 11 -11 15 -20 7
-55 84 -55 119 0 13 -5 24 -11 24 -6 0 -8 -8 -6 -17 3 -10 10 -39 17 -65 7
-26 20 -54 30 -63 10 -9 16 -23 13 -31 -3 -8 1 -14 8 -14 18 0 58 -40 54 -54
-2 -6 -6 -23 -9 -38 -6 -28 -7 -28 -89 -28 -67 0 -89 4 -123 23 -22 13 -50 26
-62 29 -40 11 -285 -24 -337 -47 -17 -8 -64 -48 -105 -90 -101 -102 -148 -133
-197 -128 -89 8 -119 5 -162 -16 -86 -45 -194 -185 -227 -298 -8 -28 -16 -92
-17 -142 -1 -50 -5 -91 -9 -91 -11 0 -13 41 -7 155 9 139 13 161 33 184 9 9
16 34 16 55 0 35 24 83 54 111 29 26 166 205 187 245 22 40 35 50 129 96 116
58 172 76 305 99 50 9 108 20 130 25 22 5 69 15 105 21 84 14 148 43 162 74 7
15 20 25 32 25 12 1 32 7 46 15 29 17 64 20 55 5 -12 -20 13 -10 50 20 21 17
44 30 51 30 8 0 38 12 68 27 l54 26 53 -19 c44 -15 84 -18 211 -19 87 0 158 3
158 8 0 4 20 7 45 7 32 0 45 -4 45 -14 0 -8 7 -17 16 -20 15 -6 15 -4 3 10
-12 14 -11 16 6 12 12 -2 19 -10 17 -21 -2 -9 2 -17 8 -17 6 0 8 -5 4 -11 -4
-8 0 -9 15 -4 17 5 20 3 14 -12 -6 -17 -5 -17 14 0 27 23 36 22 27 -5 -6 -20
-5 -21 9 -9 10 8 27 11 41 7 13 -3 26 -2 28 2 5 12 116 92 128 92 21 0 8 -16
-41 -48 -28 -18 -48 -36 -45 -39 3 -3 30 13 60 36 30 22 63 41 73 41 12 0 6
-8 -20 -27 -20 -14 -35 -28 -33 -31 3 -2 25 10 50 27 52 36 58 37 49 14 -5
-15 -4 -16 8 -7 16 13 48 23 98 31 46 7 32 -13 -18 -27 -23 -6 -46 -21 -56
-36 -38 -59 -92 -108 -145 -130 -30 -14 -68 -32 -85 -41 -170 -93 -250 -126
-330 -137 -16 -3 -41 -7 -55 -11 -14 -3 -45 -8 -70 -11 -40 -6 -49 -11 -68
-45 -27 -47 -13 -52 17 -6 29 45 26 21 -4 -32 -14 -24 -22 -47 -19 -50 4 -3 9
-1 11 5 11 31 67 107 70 96 3 -6 8 -10 13 -7 4 3 6 -4 3 -15 -3 -11 -9 -22
-13 -25 -5 -3 -6 4 -3 15 3 11 3 20 0 20 -8 0 -34 -43 -41 -70 -7 -25 -7 -25
10 -5 16 19 16 19 10 -8 -10 -42 8 -25 37 36 13 29 31 58 39 64 7 7 -1 -18
-19 -55 -31 -64 -46 -118 -23 -82 5 8 10 10 10 3 0 -6 7 -10 16 -9 10 2 30 35
52 84 19 45 37 80 39 78 3 -2 -9 -36 -26 -76 -36 -85 -37 -90 -12 -83 13 3 30
31 51 84 18 44 36 82 41 85 5 2 -5 -27 -22 -66 -17 -40 -29 -78 -27 -87 2 -8
19 25 38 73 19 48 36 81 38 73 1 -9 -11 -46 -27 -85 -30 -70 -32 -93 -6 -58 9
12 14 14 15 6 0 -31 21 4 51 88 17 49 37 95 44 100 7 6 -4 -33 -26 -87 -37
-95 -48 -137 -30 -117 4 5 25 54 46 109 21 55 42 105 48 110 13 13 7 -6 -37
-129 -20 -55 -34 -102 -31 -104 6 -6 36 65 69 165 15 45 34 87 42 93 8 7 14 9
14 5 0 -4 7 -2 15 5 12 10 13 7 5 -19 -14 -45 -26 -79 -49 -143 -22 -61 -27
-95 -10 -65 6 10 28 68 50 130 22 62 42 118 45 126 2 8 7 12 9 9 3 -2 -13 -56
-34 -119 -45 -132 -57 -178 -43 -164 5 6 31 74 57 153 26 79 50 141 52 138 3
-3 -9 -51 -27 -108 -47 -149 -49 -158 -40 -158 5 0 23 46 40 103 17 56 36 117
41 134 6 18 15 36 21 40 8 4 9 0 3 -13 -19 -47 -66 -217 -62 -227 2 -7 23 48
46 121 23 72 46 132 51 132 5 0 0 -24 -10 -53 -31 -88 -59 -197 -51 -197 7 0
45 117 71 217 6 23 15 45 20 48 5 3 3 -16 -5 -42 -27 -90 -52 -213 -45 -213 5
0 13 24 20 53 21 91 58 216 70 234 13 21 13 17 -25 -126 -14 -51 -25 -102 -25
-113 0 -30 20 -11 21 20 0 15 3 21 6 15 11 -29 22 -7 47 95 15 59 33 127 41
152 25 81 16 14 -15 -105 -34 -132 -33 -125 -21 -125 7 0 46 148 67 260 3 19
10 42 15 50 7 11 8 8 4 -10 -4 -21 -31 -152 -52 -255 -4 -21 -3 -27 5 -20 6 6
21 57 32 115 26 131 40 183 46 177 5 -4 -27 -201 -43 -266 -4 -16 -2 -22 5
-17 12 7 28 73 47 199 13 90 28 122 52 113 7 -3 13 1 13 11 0 9 2 14 4 12 3
-2 -6 -69 -20 -148 -21 -125 -24 -167 -11 -150 2 2 14 65 26 139 13 74 27 142
32 150 10 16 6 -23 -11 -110 -17 -90 -19 -110 -11 -110 11 0 17 24 32 132 11
82 22 118 32 108 3 -3 -3 -48 -13 -100 -10 -52 -16 -97 -14 -100 11 -10 21 24
33 112 7 51 15 97 18 101 11 19 13 -3 4 -49z m258 24 c53 -17 111 -41 128 -53
29 -19 39 -21 99 -13 70 10 84 7 66 -14 -16 -20 -7 -136 12 -157 44 -49 -20
-17 -119 59 -33 25 -71 53 -85 63 -14 9 -43 29 -65 44 -22 16 -61 41 -87 56
-44 26 -68 47 -52 47 4 0 50 -14 103 -32z m6550 -85 c-8 -10 -9 -14 -2 -10 15
10 85 -38 101 -69 7 -14 34 -34 59 -45 25 -10 59 -29 76 -41 36 -26 31 -25
141 -31 47 -3 102 -10 123 -16 59 -16 176 -43 198 -46 11 -1 41 -6 66 -10 29
-4 55 -3 67 4 15 8 29 7 56 -4 39 -17 51 -40 14 -26 -13 4 -59 8 -103 9 -78 0
-179 17 -280 46 -27 8 -88 17 -135 20 -47 4 -103 12 -125 19 -60 19 -150 74
-184 113 -34 38 -47 44 -31 14 12 -23 80 -90 91 -90 4 0 30 -15 57 -34 45 -30
61 -35 144 -41 51 -4 140 -18 198 -32 58 -13 143 -29 190 -34 46 -5 87 -14 91
-20 4 -7 9 -4 12 5 5 12 14 15 34 10 47 -11 48 -21 7 -71 -52 -64 -179 -191
-233 -233 l-44 -34 6 32 c5 24 3 32 -8 32 -10 0 -14 -10 -13 -33 1 -19 -2 -39
-6 -46 -9 -14 -29 -3 -23 13 15 40 17 56 8 56 -6 0 -11 -8 -11 -17 0 -10 -7
-31 -15 -47 -8 -15 -13 -32 -10 -36 5 -7 -57 -60 -70 -60 -3 0 -1 9 5 20 6 11
15 18 21 15 8 -6 13 8 10 28 0 4 3 7 7 7 5 0 14 12 21 27 11 24 11 25 -5 12
-16 -13 -16 -12 -5 9 6 12 8 22 3 22 -5 0 -17 -21 -27 -46 -10 -26 -28 -56
-41 -67 -13 -11 -21 -24 -18 -29 8 -13 -49 -72 -106 -110 -25 -17 -40 -25 -33
-18 13 14 6 43 -8 34 -5 -3 -6 -10 -3 -16 5 -7 2 -8 -6 -3 -7 4 -15 4 -19 -1
-13 -18 -61 -57 -61 -50 0 12 123 127 128 121 3 -3 21 9 40 27 22 21 31 26 24
13 -6 -11 -22 -31 -37 -45 -15 -14 -31 -34 -37 -45 -5 -11 10 0 34 25 73 76
140 182 131 208 -3 7 1 11 7 10 7 -2 15 4 18 12 4 11 0 11 -21 -3 -15 -10 -27
-15 -27 -13 0 15 14 36 24 36 12 0 40 70 31 78 -4 4 -53 -71 -62 -96 -20 -56
-276 -331 -341 -366 -9 -5 -20 -14 -24 -20 -4 -6 -11 -6 -21 2 -7 7 -17 9 -20
5 -4 -3 -7 1 -7 10 0 21 -9 21 -40 0 -25 -17 -25 -17 -7 4 17 19 17 22 2 37
-17 17 -27 14 -57 -12 -26 -22 -22 -7 4 17 18 17 19 23 8 36 -7 9 -19 14 -27
11 -8 -3 -11 -1 -8 4 10 17 -11 11 -41 -11 l-29 -21 28 26 c15 14 27 27 27 30
0 3 -12 17 -27 31 -15 14 -24 25 -20 25 4 0 -2 9 -13 20 -11 11 -20 27 -20 37
0 14 -2 14 -20 -2 -20 -18 -21 -18 -13 1 6 16 1 14 -30 -9 -25 -19 -42 -25
-52 -20 -12 7 -11 11 8 22 20 13 21 13 8 -2 -22 -27 -3 -20 40 15 32 26 37 33
24 40 -8 5 -21 6 -28 2 -8 -5 -8 -2 2 9 11 14 11 21 -5 44 -15 24 -19 25 -22
10 -3 -14 -7 -16 -18 -6 -11 9 -18 9 -29 -1 -13 -11 -14 -10 -9 4 3 9 1 16 -5
16 -6 0 -11 -5 -11 -11 0 -5 -4 -8 -9 -4 -5 3 -13 0 -17 -6 -5 -8 -9 -7 -14 2
-7 10 -11 10 -24 0 -12 -10 -16 -10 -16 -2 0 8 -5 9 -17 2 -13 -7 -26 -5 -45
7 -16 9 -28 19 -28 23 0 4 23 27 52 51 28 23 58 50 66 60 8 9 22 14 30 10 11
-4 14 -1 10 10 -4 10 20 40 77 92 46 42 86 76 88 76 3 0 3 -10 0 -22 -7 -29
-40 -66 -75 -84 -26 -13 -38 -34 -20 -34 4 0 31 18 60 40 29 22 59 40 67 40 8
0 15 7 15 15 0 9 6 12 15 9 10 -4 15 0 15 11 0 9 4 14 9 11 5 -4 15 27 21 66
7 43 18 78 28 85 8 7 12 16 9 20 -4 3 -20 -5 -35 -19 -15 -14 -41 -31 -58 -38
-17 -8 -35 -23 -40 -34 -9 -21 -180 -155 -199 -156 -15 -2 -69 -70 -61 -77 3
-4 23 9 44 29 20 19 53 45 72 58 19 13 37 27 40 30 3 3 16 14 30 24 14 11 3
-2 -25 -29 -131 -126 -169 -159 -173 -147 -2 7 -8 9 -14 6 -7 -5 -9 2 -4 21 4
15 10 41 13 58 4 18 17 36 34 46 18 10 34 31 42 56 9 25 25 47 45 60 17 11 46
30 64 42 18 13 52 35 74 50 23 16 52 47 65 71 22 40 43 54 51 32 2 -5 23 9 47
30 45 40 75 54 50 23z m-4564 -100 c28 -77 36 -137 50 -359 l6 -102 -28 -5
c-75 -14 -150 -41 -178 -64 l-30 -26 -5 69 c-4 48 -1 78 9 99 8 17 16 41 17
55 2 14 8 59 15 100 6 41 13 111 15 154 4 65 9 84 27 102 12 12 28 29 35 38
24 30 39 16 67 -61z m1971 -232 c16 -6 90 -12 164 -15 135 -4 244 -22 234 -38
-3 -4 -17 -8 -32 -8 -15 0 -60 -15 -99 -34 -61 -29 -121 -44 -194 -46 -9 0
-34 -12 -55 -27 -26 -18 -59 -30 -99 -34 -33 -4 -79 -11 -102 -14 -24 -3 -43
-2 -43 3 0 13 69 89 70 76 0 -6 -9 -19 -20 -29 -11 -10 -20 -22 -20 -27 0 -4
13 6 29 24 16 18 25 35 21 38 -5 3 -5 12 0 20 25 38 5 26 -41 -27 -28 -32 -57
-61 -64 -65 -15 -9 -29 18 -18 35 3 7 -3 4 -14 -6 -23 -20 -55 -13 -46 10 5
12 3 14 -7 8 -9 -5 -11 -4 -6 4 4 6 11 9 15 6 5 -2 19 8 32 23 l24 27 -29 -25
c-23 -20 -28 -21 -23 -7 4 11 3 16 -3 12 -6 -3 -10 -1 -10 6 0 9 -3 9 -14 0
-11 -9 -15 -8 -20 5 -12 30 -6 36 20 19 18 -12 29 -13 38 -6 7 6 17 7 21 3 5
-4 5 -2 2 4 -9 15 18 38 33 29 8 -5 7 -12 -2 -23 -12 -16 -11 -16 7 -1 11 9
31 15 45 14 14 -2 29 -4 34 -4 5 -1 1 -11 -9 -23 -10 -13 4 0 31 27 41 42 85
71 115 74 3 1 19 -3 35 -8z m-1150 -64 c6 2 14 -5 17 -16 4 -17 2 -19 -13 -11
-16 9 -17 7 -9 -18 4 -15 11 -39 14 -53 3 -17 11 -26 21 -25 10 0 22 -15 33
-42 9 -23 20 -40 24 -36 11 12 19 -24 9 -42 -8 -15 -13 -9 -28 34 -20 55 -34
67 -35 30 0 -17 -5 -12 -20 21 -21 47 -37 52 -19 6 8 -22 8 -30 -2 -36 -9 -6
-2 -11 20 -15 31 -6 62 -36 62 -59 0 -5 -24 -24 -52 -41 -48 -29 -53 -31 -66
-15 -13 15 -13 15 -8 -1 6 -21 -9 -24 -17 -4 -3 8 -1 16 5 18 7 3 8 16 3 38
l-8 35 -12 -35 -12 -35 -18 60 c-10 33 -21 67 -26 75 -4 8 -12 29 -17 46 -10
30 -7 34 34 70 25 22 50 44 57 50 7 7 21 8 32 4 11 -4 25 -5 31 -3z m2978 -41
c107 -95 118 -105 256 -218 74 -60 154 -125 176 -144 71 -58 271 -199 390
-274 13 -8 24 -21 24 -29 0 -8 6 -11 17 -7 19 8 66 -31 56 -47 -3 -6 -1 -7 5
-3 16 10 93 -36 87 -52 -3 -7 0 -10 5 -7 5 3 29 -8 52 -26 24 -17 74 -49 111
-71 38 -22 66 -42 64 -45 -3 -2 -23 6 -45 19 -22 13 -65 37 -95 55 -30 17 -62
39 -71 48 -9 9 -16 14 -16 10 0 -3 -27 13 -60 35 -33 22 -60 45 -60 50 0 6 -3
9 -7 8 -12 -3 -52 20 -113 67 -30 22 -67 47 -81 54 -26 13 -209 153 -280 215
-20 17 -80 65 -133 106 -53 41 -109 87 -123 102 -15 16 -32 28 -37 28 -13 1
-204 180 -192 180 5 0 36 -24 70 -54z m-6042 25 c13 -5 34 -20 46 -34 22 -23
30 -25 80 -21 32 3 71 11 87 18 17 7 47 21 69 30 32 14 69 17 215 16 210 -2
221 -3 288 -20 35 -9 51 -19 51 -29 0 -22 23 -81 44 -113 9 -14 20 -39 24 -54
9 -37 54 -133 54 -116 0 22 -41 136 -62 172 -22 37 -50 121 -43 128 10 11 62
-63 74 -105 7 -27 31 -87 53 -136 38 -84 45 -125 20 -120 -7 2 -12 -1 -12 -7
0 -12 -90 -55 -107 -52 -7 2 -13 -1 -13 -7 0 -5 -13 -14 -30 -20 -16 -5 -30
-17 -30 -25 0 -8 -8 -20 -17 -26 -17 -9 -16 -11 6 -30 13 -11 29 -20 36 -20 7
0 36 -22 65 -49 41 -38 51 -54 48 -75 l-3 -26 -80 57 c-44 31 -111 80 -150
109 -125 93 -262 163 -286 148 -5 -3 -9 -1 -9 5 0 6 -7 8 -15 5 -9 -4 -18 1
-21 11 -4 9 -13 14 -20 11 -7 -3 -20 2 -29 10 -8 9 -15 13 -15 9 0 -3 -14 2
-31 12 -33 19 -72 66 -103 123 -10 19 -28 45 -39 57 -28 31 -214 136 -226 128
-16 -9 -74 37 -59 47 15 9 106 2 140 -11z m-157 -41 c3 -5 3 -11 -2 -11 -4 -1
-20 -3 -34 -4 -15 -2 -109 -45 -210 -97 -101 -51 -191 -93 -199 -93 -8 0 -34
-10 -57 -23 -25 -13 -60 -22 -86 -22 -27 0 -54 -7 -68 -18 -13 -10 -69 -44
-124 -75 -90 -50 -138 -74 -286 -139 -26 -11 -55 -17 -65 -14 -18 6 -122 116
-110 116 14 0 82 -63 88 -81 4 -11 9 -11 24 2 10 10 62 37 114 61 101 48 242
136 347 219 54 42 69 50 91 44 15 -4 69 -9 120 -11 81 -3 97 -1 130 19 172
102 310 155 327 127z m83 -24 c26 -13 59 -37 73 -53 49 -53 119 -163 122 -191
2 -32 71 -99 132 -129 40 -20 140 -52 180 -58 85 -11 240 -91 320 -165 17 -15
51 -39 77 -54 25 -15 51 -33 58 -40 6 -8 19 -12 30 -9 14 4 22 -2 30 -21 5
-14 14 -26 20 -26 5 0 10 -11 10 -25 0 -35 -22 -32 -67 8 -95 84 -183 147
-243 173 -36 15 -84 41 -108 57 -81 54 -131 70 -226 74 -100 3 -83 -6 -208
114 -51 48 -57 59 -62 102 -4 50 -12 64 -61 112 -18 17 -39 42 -49 57 -9 14
-33 37 -51 50 -19 12 -35 29 -35 36 0 16 3 16 58 -12z m3358 -23 c7 -10 14
-26 14 -35 0 -9 4 -20 10 -23 6 -4 8 6 6 24 -2 17 1 28 6 25 5 -3 7 -12 4 -20
-3 -7 -1 -16 4 -19 6 -4 10 -2 10 4 0 17 48 -8 134 -71 44 -32 85 -58 91 -58
6 0 29 -15 51 -34 22 -19 57 -41 77 -49 20 -9 37 -21 37 -26 0 -6 5 -11 10
-11 6 0 10 6 10 13 0 7 7 22 15 33 13 17 13 15 3 -18 -6 -21 -8 -41 -4 -45 10
-10 27 19 21 35 -3 7 0 10 5 7 10 -6 14 7 11 33 -1 6 5 12 13 12 9 0 31 16 51
35 20 21 40 33 47 29 6 -4 8 -3 4 4 -11 18 75 81 111 80 36 -1 36 -3 -20 -120
-35 -73 -108 -155 -128 -142 -4 2 -15 -9 -24 -26 -16 -30 -17 -31 -38 -15 -12
8 -30 18 -39 21 -10 4 -15 13 -11 22 3 12 2 13 -4 5 -14 -20 -57 -11 -81 18
-22 26 -24 26 -65 12 -92 -32 -126 -107 -73 -162 21 -22 26 -39 32 -117 4 -51
4 -104 0 -118 -6 -23 -9 -25 -26 -16 -11 6 -20 19 -20 29 0 10 -9 44 -20 76
-11 32 -34 115 -51 183 -35 141 -67 235 -78 227 -10 -6 34 -187 90 -377 33
-108 33 -108 19 -108 -11 0 -50 81 -50 105 0 9 -10 44 -23 78 -39 102 -84 244
-99 307 -3 11 5 14 62 23 30 5 33 13 15 41 -19 28 -52 34 -87 15 -18 -10 -20
-9 -15 5 3 8 0 30 -7 48 -30 74 -30 101 0 61z m1091 5 c2 6 9 12 15 12 6 0 3
-9 -7 -20 -11 -12 -21 -16 -25 -10 -3 5 -14 -5 -25 -23 -16 -27 -16 -30 -2
-18 15 12 17 11 17 -2 0 -9 -6 -20 -12 -24 -7 -4 -21 -18 -31 -30 -14 -16 -15
-23 -6 -29 8 -4 10 -3 5 4 -4 6 4 18 17 26 13 9 34 34 46 57 23 40 43 50 22
10 -9 -16 -7 -27 11 -57 12 -21 17 -34 10 -30 -12 7 -16 -5 -13 -33 2 -7 -2
-10 -8 -7 -5 4 -13 1 -17 -5 -5 -8 -3 -9 6 -4 8 5 11 3 8 -6 -3 -8 -11 -13
-17 -11 -13 3 -15 -14 -2 -23 5 -3 24 22 43 55 18 33 36 60 39 60 10 0 -1 -39
-12 -46 -5 -3 -9 -10 -9 -15 0 -6 5 -7 10 -4 6 3 10 2 10 -3 0 -14 -26 -33
-33 -25 -4 3 -7 2 -7 -3 0 -12 21 -34 32 -34 4 0 8 5 8 11 0 5 -4 7 -10 4 -16
-10 -12 11 5 25 9 8 13 21 9 32 -6 20 14 22 29 3 5 -6 7 -4 4 5 -2 8 -11 14
-18 12 -11 -3 -11 -1 -2 9 18 18 44 -11 31 -34 -5 -10 -12 -15 -16 -13 -4 3
-8 -4 -8 -15 0 -27 8 -24 28 11 17 29 17 29 52 15 20 -9 36 -12 36 -8 0 3 2 4
5 1 8 -7 -22 -85 -44 -117 -11 -15 -32 -57 -46 -94 -17 -41 -33 -67 -42 -67
-12 0 -81 47 -103 70 -3 3 -16 5 -30 5 -20 0 -25 -6 -32 -40 -9 -42 -49 -84
-81 -85 -24 0 -30 20 -17 56 l10 29 -20 -25 c-27 -35 -24 -13 5 35 14 22 25
47 24 55 0 8 -14 -11 -30 -44 -17 -32 -33 -56 -35 -53 -3 3 7 28 21 57 14 29
24 54 22 57 -3 2 -17 -21 -31 -51 -28 -59 -36 -65 -59 -41 -8 8 -18 11 -22 7
-5 -4 -5 1 -2 11 10 28 -3 19 -14 -9 -13 -37 -24 -22 -11 15 l11 31 -25 -16
c-22 -15 -36 -43 -14 -29 6 3 10 1 10 -5 0 -6 -11 -8 -25 -6 -25 5 -45 -9 -24
-16 7 -2 4 -10 -7 -18 -16 -13 -17 -13 -11 2 4 11 0 21 -10 27 -15 8 -11 17
30 66 26 32 47 67 47 79 0 12 9 46 20 76 11 30 20 57 20 59 0 2 3 1 7 -2 3 -4
15 1 26 10 10 10 22 17 25 15 4 -2 8 2 11 9 2 8 -1 9 -10 4 -8 -5 -10 -4 -6 0
4 5 14 10 23 11 11 2 13 -3 8 -19 -8 -26 -1 -21 16 12 8 15 8 21 1 17 -18 -12
-12 5 15 41 14 18 30 31 35 28 5 -4 12 1 15 9 3 9 11 16 17 16 5 0 2 -9 -8
-20 -10 -11 -24 -20 -31 -20 -20 0 -35 -35 -26 -60 8 -21 10 -21 41 19 18 22
38 41 44 41 6 0 0 -11 -12 -24 -13 -14 -18 -26 -13 -30 6 -3 21 8 33 26 13 18
31 42 41 52 10 11 18 25 18 30 0 6 5 4 11 -4 8 -11 12 -12 16 -2z m-5302 -37
c32 -2 36 -4 20 -11 -11 -5 -40 -9 -65 -10 -72 -1 -132 -19 -172 -51 -29 -23
-48 -30 -85 -31 -74 -1 -77 0 -89 36 -10 33 -10 33 31 48 24 9 61 14 91 11 28
-2 61 1 75 6 21 8 54 9 194 2z m3230 -166 c5 -22 18 -49 28 -60 19 -20 19 -52
0 -48 -7 2 -23 -11 -38 -28 -35 -42 -31 -94 16 -197 25 -55 15 -51 -50 20 -50
55 -57 78 -25 78 11 0 10 5 -6 22 -11 12 -20 25 -20 29 0 4 -16 13 -35 19 -19
6 -38 17 -42 23 -9 13 -63 17 -63 5 0 -4 -4 -8 -10 -8 -5 0 -10 17 -10 39 0
35 4 41 53 72 98 64 132 80 162 77 26 -3 31 -8 40 -43z m963 -22 c-2 -25 1
-37 9 -36 10 2 22 -30 28 -77 1 -8 5 -22 8 -30 11 -32 27 -83 27 -89 0 -3 -5
2 -11 12 -6 9 -14 15 -18 12 -5 -2 -11 4 -14 15 -3 11 -1 20 4 20 10 0 -1 32
-15 43 -8 6 -7 10 1 13 16 7 5 34 -13 34 -8 0 -14 5 -14 11 0 5 -5 7 -10 4 -7
-4 -6 -13 1 -26 6 -11 8 -27 5 -35 -3 -9 -1 -12 4 -9 6 3 11 -4 11 -17 1 -13
3 -45 5 -73 2 -27 9 -71 17 -97 9 -29 11 -45 4 -41 -7 4 -8 -2 -3 -18 18 -67
14 -66 -12 1 -27 74 -51 123 -52 107 0 -4 7 -22 16 -38 12 -24 13 -34 3 -45
-13 -16 -4 -104 12 -104 18 0 8 -17 -18 -29 -18 -8 -29 -9 -36 -2 -6 6 -41
102 -78 213 l-67 203 26 12 c15 7 49 22 76 34 27 12 59 33 72 46 31 31 35 29
32 -14z m-3242 19 c6 -4 13 -23 16 -43 l4 -36 -56 -11 c-30 -5 -71 -11 -90
-12 -35 -2 -71 -7 -80 -10 -3 -1 -17 -1 -31 0 -14 0 -31 -5 -37 -13 -9 -10
-29 -13 -77 -10 -36 3 -71 0 -78 -4 -7 -5 -34 -10 -62 -11 -27 -1 -70 -6 -95
-12 -71 -16 -148 -18 -169 -4 -10 7 -21 10 -25 7 -9 -10 -46 -11 -46 -2 0 15
-104 -46 -143 -83 -33 -31 -42 -35 -64 -27 -67 25 -165 -5 -201 -63 -12 -20
-22 -43 -22 -52 0 -15 -3 -15 -29 -1 -41 21 -62 53 -49 74 5 9 49 31 97 50
106 40 104 39 221 107 184 106 189 108 330 110 143 2 428 22 480 33 19 4 62 9
95 10 33 1 62 4 64 7 7 6 35 4 47 -4z m7531 -102 c24 -6 71 -24 106 -39 35
-16 82 -32 105 -36 23 -4 40 -11 37 -15 -3 -5 5 -10 17 -12 13 -2 22 -9 21
-16 -2 -6 1 -12 6 -12 6 0 27 -16 48 -35 35 -32 38 -38 37 -92 0 -77 -24 -124
-103 -204 -91 -90 -150 -112 -320 -114 -127 -2 -186 11 -175 38 3 8 -15 20
-46 31 -29 11 -49 24 -48 31 2 7 -14 31 -34 53 -21 23 -38 46 -38 52 0 5 -4
10 -8 10 -14 0 -38 94 -32 130 4 29 10 36 35 41 17 4 23 7 15 8 -13 1 -13 2 0
11 13 8 12 10 -3 10 -29 0 -9 20 21 21 l27 1 -30 8 -30 7 35 8 c28 7 31 9 15
15 -16 6 -13 9 17 15 21 4 35 11 32 16 -3 5 2 9 11 9 9 0 13 -4 10 -10 -3 -5
-1 -10 4 -10 6 0 11 7 11 15 0 8 5 15 10 15 6 0 10 -8 10 -17 0 -13 3 -14 12
-5 7 7 18 12 26 12 8 0 27 9 43 21 16 11 33 18 38 15 5 -3 16 6 25 20 11 16
23 23 34 20 9 -3 36 -10 59 -16z m-5798 -94 c-11 -25 -25 -46 -30 -46 -4 0
-16 -13 -25 -30 -15 -24 -20 -27 -33 -17 -12 10 -12 7 1 -12 15 -22 15 -27 -8
-90 -14 -36 -32 -81 -40 -99 -8 -18 -12 -37 -9 -42 15 -25 -13 -6 -37 24 -32
39 -35 51 -13 42 13 -5 14 -2 4 16 -10 18 -9 20 5 15 19 -8 20 -3 4 24 -10 16
-10 23 -2 26 7 2 10 12 8 21 -2 9 0 23 5 31 8 13 12 13 28 1 15 -12 16 -12 6
0 -7 8 -13 21 -13 30 0 10 9 5 26 -15 26 -30 26 -30 10 -2 -16 27 -16 29 14
72 17 25 41 55 53 66 21 20 59 40 65 34 2 -2 -7 -24 -19 -49z m267 9 c-3 -8
-1 -15 4 -15 6 0 10 5 10 11 0 6 15 0 33 -13 17 -13 53 -36 79 -51 26 -15 69
-52 95 -83 26 -31 58 -60 69 -64 23 -9 39 -61 48 -155 3 -27 11 -108 17 -178
l12 -129 -29 -24 c-16 -13 -39 -23 -51 -24 -12 0 -25 -4 -28 -10 -3 -5 -24
-10 -45 -10 -26 0 -48 -8 -68 -25 l-30 -25 -42 56 -42 56 12 81 c7 49 20 92
31 109 11 15 17 32 14 38 -3 5 -1 10 4 10 6 0 11 9 11 20 0 11 4 20 10 20 5 0
6 -7 3 -17 -4 -11 -3 -14 5 -9 7 4 12 15 13 24 0 14 2 13 9 -3 6 -14 9 -15 10
-5 1 11 4 9 11 -5 8 -17 9 -16 5 8 -2 15 1 30 5 33 5 3 9 -13 9 -36 0 -25 4
-39 10 -35 6 3 10 -3 10 -14 0 -12 5 -21 10 -21 13 0 13 47 0 55 -6 4 -8 11
-4 16 3 5 14 -1 24 -13 17 -20 19 -21 20 -5 0 10 -4 15 -10 12 -6 -4 -10 9 -9
32 1 38 1 38 9 8 4 -16 8 -22 9 -12 0 9 6 17 11 17 6 0 10 12 10 27 0 14 7 35
17 45 25 28 3 21 -52 -15 -51 -34 -102 -60 -142 -72 -20 -5 -21 -2 -25 62 -2
37 -2 71 -1 75 2 4 15 2 28 -4 16 -7 27 -22 31 -44 3 -19 10 -31 15 -28 20 12
-14 84 -40 84 -6 0 -11 5 -11 12 0 6 -9 3 -20 -7 -19 -18 -20 -17 -36 21 -8
21 -33 75 -55 120 -35 73 -52 120 -30 85 7 -11 12 -10 22 8 16 24 34 29 25 6z
m-1872 -36 c-13 -15 -15 -22 -6 -31 9 -9 16 -7 31 6 16 15 22 15 40 4 12 -7
21 -15 21 -18 0 -15 -130 -131 -167 -149 -32 -16 -47 -32 -63 -67 -11 -26 -20
-61 -20 -78 -1 -39 -17 -74 -53 -116 -37 -44 -43 -34 -12 24 18 33 25 63 25
100 0 39 5 59 20 76 11 13 20 27 20 32 0 14 -28 9 -34 -7 -3 -8 -12 -15 -21
-15 -17 0 -20 -16 -5 -25 5 -3 7 -12 3 -21 -4 -11 -9 -12 -19 -3 -18 15 -18 8
2 -41 24 -59 13 -58 -26 1 -29 46 -32 55 -23 80 9 23 8 29 -2 29 -19 0 -26
-28 -19 -76 5 -37 2 -50 -22 -89 -16 -25 -35 -45 -43 -45 -9 0 -3 13 15 37 25
33 28 45 26 92 -4 71 19 117 63 125 54 10 104 45 185 127 44 44 85 77 91 74 7
-5 4 -13 -7 -26z m3659 -13 c-4 -8 -12 -16 -18 -18 -5 -2 -10 -8 -11 -15 -2
-8 5 -7 22 3 12 9 27 13 33 10 5 -4 11 1 13 9 2 13 5 12 15 -3 6 -10 8 -23 5
-28 -9 -12 -179 -137 -210 -153 -21 -11 -42 -8 -42 7 0 4 14 16 30 25 24 15
28 22 21 36 -7 12 -6 22 2 31 10 10 8 10 -10 1 -12 -6 -25 -16 -28 -21 -3 -6
-11 -10 -17 -10 -21 0 18 34 106 92 88 57 106 64 89 34z m-4003 -4 c0 -4 -34
-40 -75 -80 -42 -40 -73 -77 -70 -83 9 -13 -13 -39 -33 -39 -12 0 -11 4 6 16
12 8 20 19 17 24 -8 12 -44 -8 -69 -39 -11 -14 -33 -36 -48 -49 -15 -13 -28
-36 -30 -51 -3 -23 -8 -26 -43 -29 -32 -3 -53 -15 -115 -70 -41 -37 -77 -70
-78 -75 -4 -9 -22 1 -22 12 0 4 38 40 85 80 47 40 85 76 85 81 0 5 4 20 10 35
8 21 13 24 28 16 26 -14 112 50 112 83 0 29 20 47 46 40 13 -3 41 15 97 66 72
65 97 81 97 62z m2007 -50 c-26 -26 -47 -52 -47 -56 0 -5 21 12 47 37 49 48
85 67 43 22 -26 -27 -24 -30 14 -15 20 7 24 6 20 -5 -3 -7 -12 -16 -20 -19 -8
-3 -14 -11 -14 -18 0 -9 3 -9 12 0 7 7 17 12 22 12 6 0 5 -5 -2 -12 -7 -7 -12
-19 -12 -27 0 -11 5 -10 22 5 13 10 18 12 12 4 -6 -8 -14 -27 -18 -42 -6 -25
-26 -40 -26 -19 0 22 -56 -2 -93 -40 l-42 -43 44 34 c24 18 55 35 68 36 21 2
24 -1 21 -21 -4 -18 -1 -22 11 -18 9 3 3 -6 -14 -21 -33 -27 -45 -32 -45 -15
0 5 -5 7 -11 3 -6 -3 -16 0 -21 7 -8 11 -9 10 -5 -3 3 -9 -1 -19 -9 -22 -9 -3
-12 -1 -9 4 3 6 1 10 -4 10 -6 0 -11 -8 -11 -18 0 -10 -5 -23 -12 -30 -26 -26
0 -20 33 8 33 29 51 37 47 23 -9 -25 65 6 75 31 3 8 16 20 28 26 15 8 19 9 15
1 -4 -6 -3 -11 3 -11 16 0 6 -28 -19 -55 -14 -15 -30 -23 -40 -20 -10 3 -26
-6 -41 -22 -16 -19 -18 -23 -4 -12 36 29 51 34 31 11 -30 -34 -4 -26 42 14 48
41 57 33 12 -9 -33 -32 -31 -60 2 -30 20 18 21 17 11 -2 -6 -11 -8 -25 -6 -32
2 -6 -4 -17 -14 -25 -10 -7 -25 -22 -33 -33 -11 -15 -7 -14 13 4 34 31 36 13
2 -19 -14 -13 -24 -29 -21 -34 2 -6 -13 -29 -33 -51 l-36 -40 42 39 c23 22 40
42 38 46 -2 3 5 7 16 7 15 1 18 -1 10 -11 -6 -6 -8 -21 -5 -32 4 -13 -8 -33
-40 -67 -26 -26 -46 -51 -46 -55 0 -4 21 15 46 41 45 47 71 56 46 17 -10 -16
-9 -18 3 -14 23 9 18 -7 -11 -37 -21 -22 -23 -27 -10 -32 8 -3 18 -2 21 3 4 6
1 10 -5 10 -6 0 -8 5 -5 10 3 6 11 10 16 10 6 0 7 -4 4 -10 -3 -5 -2 -10 4
-10 6 0 8 -7 5 -15 -4 -8 -1 -15 5 -15 6 0 11 -7 11 -15 0 -8 11 -22 24 -30
16 -11 29 -33 36 -63 6 -26 15 -63 20 -82 24 -92 30 -141 29 -215 -1 -77 12
-135 41 -182 10 -16 9 -27 -9 -61 -12 -23 -17 -42 -11 -42 6 0 16 11 22 25 6
14 15 25 20 25 5 0 -5 -25 -22 -55 -38 -66 -27 -74 14 -10 40 64 45 48 6 -20
-39 -68 -34 -84 6 -20 16 25 33 44 38 42 6 -2 16 -22 24 -45 12 -38 12 -48 -7
-104 -12 -34 -21 -87 -21 -118 0 -34 -6 -64 -15 -76 -8 -10 -15 -31 -15 -47 0
-25 -2 -26 -20 -15 -21 13 -28 48 -9 48 6 0 8 9 3 23 -4 12 -6 36 -6 54 2 39
-24 103 -41 103 -6 0 -19 -5 -27 -10 -12 -8 -9 -10 11 -10 20 0 30 -7 39 -29
6 -16 10 -38 8 -48 -3 -15 -8 -12 -25 15 -11 19 -44 49 -72 68 -30 20 -53 44
-57 59 -3 14 -11 25 -18 25 -6 0 3 11 19 25 17 13 25 24 19 25 -5 0 -15 -5
-22 -12 -6 -6 -14 -9 -18 -6 -3 4 6 14 20 23 14 10 26 22 26 28 0 6 -10 1 -22
-10 -13 -11 -32 -23 -42 -27 -20 -7 -20 -7 -1 14 11 12 32 29 47 38 16 9 28
20 28 24 0 5 -11 1 -25 -8 -13 -8 -29 -13 -35 -9 -6 4 -19 1 -28 -7 -15 -11
-15 -11 -5 3 7 9 11 18 8 21 -3 3 5 13 17 24 18 15 20 16 9 2 -7 -10 -10 -18
-5 -18 14 1 80 60 67 60 -7 0 -15 -4 -18 -10 -3 -5 -11 -10 -17 -10 -6 0 -3
10 8 22 10 12 -8 0 -41 -26 -33 -27 -62 -53 -64 -60 -2 -6 4 -4 15 4 17 13 17
13 -1 -9 l-20 -23 -3 23 c-2 13 1 25 7 27 21 7 41 33 35 44 -5 7 -2 8 7 3 8
-5 11 -4 6 0 -4 5 7 24 25 44 l33 35 -47 -38 c-26 -21 -46 -42 -43 -46 3 -5 1
-11 -5 -15 -5 -3 -10 2 -10 12 0 10 32 45 71 78 39 33 65 61 59 63 -8 3 -8 8
1 18 7 8 7 14 1 14 -5 0 -15 -7 -22 -15 -10 -12 -10 -15 1 -15 14 0 -89 -99
-103 -100 -4 0 15 21 43 47 30 28 45 49 39 53 -7 4 -1 14 15 24 15 10 24 20
21 23 -3 3 -30 -16 -60 -41 -30 -26 -57 -43 -60 -38 -3 5 21 31 54 56 63 49
72 60 43 49 -16 -6 -16 -5 -4 10 7 9 9 17 3 17 -5 0 -15 -7 -22 -15 -10 -12
-10 -15 1 -15 8 0 3 -9 -11 -20 -14 -10 -27 -17 -29 -14 -2 2 -19 -8 -38 -22
-18 -14 -33 -21 -33 -17 0 5 9 14 21 21 12 7 18 16 15 19 -3 3 -14 0 -23 -8
-17 -13 -17 -12 -4 4 8 10 24 23 35 29 19 10 20 10 7 -5 -16 -20 -12 -21 23
-7 36 13 24 44 -13 35 l-26 -6 28 19 c15 10 25 21 21 24 -3 3 0 9 7 14 8 5 10
3 4 -7 -8 -12 -6 -12 9 0 11 9 14 17 7 24 -7 7 -22 1 -45 -16 -44 -34 -55 -35
-22 -2 14 14 29 37 32 51 9 36 -14 205 -32 229 -8 11 -30 43 -48 70 -19 28
-41 57 -50 64 -9 7 -16 22 -16 32 0 21 -36 49 -63 49 -10 0 -25 7 -33 15 -13
13 -18 13 -38 0 -23 -15 -24 -14 -40 25 -18 44 -21 80 -7 80 16 0 64 73 66
100 1 14 9 48 18 75 9 28 24 77 34 109 14 49 27 69 72 112 31 29 58 48 62 43
3 -6 11 -3 19 6 7 8 17 15 23 15 6 0 -10 -22 -36 -48z m-2810 -25 c17 -16 20
-24 12 -44 -12 -32 -11 -43 2 -20 14 24 32 21 24 -5 -6 -16 -4 -20 8 -15 16 6
25 -22 19 -58 -5 -27 -106 -105 -135 -105 -12 0 -43 10 -67 23 -33 16 -45 28
-43 42 1 11 -5 24 -13 28 -18 10 -18 70 1 107 26 50 62 71 119 68 33 -1 59 -9
73 -21z m6078 -21 c-30 -53 -32 -71 -5 -36 27 35 25 10 -3 -31 -12 -19 -42
-67 -66 -108 -28 -47 -46 -69 -51 -61 -5 9 -9 9 -14 1 -4 -6 -11 -9 -16 -6 -5
3 -13 -3 -19 -12 -8 -14 -10 -15 -10 -3 0 8 11 33 24 55 27 43 32 60 14 49 -7
-4 -7 1 1 16 6 12 10 24 7 26 -2 3 -34 -46 -70 -108 -67 -116 -106 -172 -114
-165 -2 3 23 46 56 97 34 51 61 96 61 101 0 19 -10 8 -31 -33 -23 -44 -96
-148 -105 -148 -2 0 7 17 21 37 27 40 32 59 13 47 -7 -4 -8 -3 -4 5 4 6 11 9
16 6 5 -3 16 5 24 17 18 26 21 42 5 33 -6 -4 -5 2 2 14 8 12 16 16 20 10 4 -7
9 -4 13 6 3 9 3 22 -1 27 -3 7 -1 8 5 4 12 -7 38 32 28 41 -3 4 -1 12 6 20 6
7 9 16 6 19 -3 2 -49 -61 -102 -141 -94 -143 -133 -190 -79 -97 49 85 163 252
173 252 5 0 12 -5 15 -10 4 -6 11 -7 17 -4 6 4 -2 -14 -17 -40 -15 -26 -25
-49 -23 -52 3 -2 24 26 46 64 23 38 49 75 58 83 11 9 7 -2 -9 -28 -29 -46 -33
-58 -16 -47 8 5 8 1 0 -14 -28 -52 -6 -30 38 39 27 42 55 80 62 84 8 6 10 4 5
-6 -4 -8 2 -2 14 14 31 39 33 33 5 -17z m-1161 2 c4 -22 1 -37 -11 -51 -17
-19 -17 -19 3 -13 18 5 21 3 20 -16 -1 -13 2 -28 7 -35 6 -8 0 -20 -20 -37
-15 -14 -23 -26 -16 -26 6 0 15 5 19 11 8 13 76 -60 71 -76 -2 -5 -15 -9 -29
-7 -14 1 -31 -4 -38 -13 -14 -17 -35 -21 -25 -5 9 15 -2 12 -33 -7 -26 -16
-26 -16 -10 2 9 10 27 19 40 20 15 1 23 8 23 21 0 10 3 24 7 29 4 6 -2 11 -12
11 -10 0 -17 -3 -14 -7 2 -4 -8 -14 -21 -23 -14 -9 -24 -20 -21 -24 2 -4 -8
-16 -23 -27 -20 -15 -23 -15 -12 -2 7 9 10 17 6 17 -4 0 -1 8 6 17 12 16 10
15 -16 -1 l-30 -19 24 27 c26 28 18 35 -13 11 -11 -8 -27 -13 -36 -10 -9 3
-31 -6 -50 -20 -43 -32 -50 -32 -19 1 13 14 23 29 21 32 -2 4 2 8 9 11 7 2 9
-1 5 -8 -5 -7 -1 -8 10 -4 12 4 14 8 5 11 -9 3 -8 9 5 23 21 23 42 25 23 2
-13 -15 -12 -15 10 -4 16 9 20 15 12 21 -9 5 -8 9 5 14 9 3 14 9 11 12 -3 3
-33 -13 -66 -37 -47 -33 -63 -40 -74 -31 -8 7 -18 8 -22 4 -5 -4 -5 -2 -2 4 4
6 18 9 33 6 21 -4 25 -1 22 14 -2 13 7 27 29 42 18 12 33 27 33 33 0 5 -34
-13 -75 -41 -79 -53 -110 -66 -60 -25 17 13 24 24 17 25 -15 0 -6 20 9 20 6 0
7 -4 4 -10 -11 -17 5 -11 41 16 19 15 32 29 30 32 -3 3 -14 -1 -23 -9 -16 -13
-17 -12 -4 4 8 10 20 16 27 13 7 -3 23 4 36 15 l23 20 -25 -11 c-23 -10 -24
-10 -7 4 11 8 24 13 31 10 6 -2 27 10 46 27 35 30 24 31 -15 0 -12 -9 -8 -4 7
11 15 15 34 25 42 22 8 -3 17 -1 21 5 11 19 22 12 29 -21z m925 -62 c-8 -8
-164 -89 -169 -88 -9 2 -115 -29 -132 -38 -9 -5 -35 -13 -58 -16 -22 -4 -43
-11 -46 -15 -3 -5 -15 -9 -27 -9 -12 0 -53 -12 -92 -26 -96 -35 -159 -52 -230
-64 -33 -6 -71 -15 -85 -20 -14 -6 -54 -17 -90 -24 -36 -8 -89 -21 -118 -29
l-53 -14 -13 31 c-7 17 -11 34 -7 37 3 4 42 12 86 18 44 7 103 19 130 26 28 8
65 17 84 20 19 3 41 10 50 14 9 5 36 12 61 16 25 4 79 16 120 27 41 12 84 22
96 23 11 1 24 4 30 7 5 3 36 11 69 18 33 7 94 23 135 36 41 13 86 24 100 24
14 0 50 11 80 24 50 22 90 32 79 22z m-4332 -36 c-7 -31 6 -42 17 -14 10 27
23 6 28 -45 3 -27 12 -57 21 -66 18 -17 24 -38 30 -95 5 -55 45 -127 82 -149
34 -19 35 -19 97 -2 35 10 77 25 93 34 42 22 89 41 96 39 3 0 4 9 2 22 -3 16
1 25 13 30 30 12 36 -9 14 -48 -30 -50 -19 -46 15 6 16 24 30 37 33 30 2 -7 8
-9 14 -6 5 3 2 -8 -7 -26 -9 -17 -19 -30 -22 -27 -2 3 0 15 7 26 19 36 4 23
-25 -21 -16 -24 -21 -37 -12 -29 23 18 21 11 -9 -43 -40 -72 -21 -54 31 29 25
41 50 77 56 80 11 7 -7 -44 -23 -62 -7 -9 -7 -13 1 -13 6 0 11 4 11 8 0 5 7
17 15 28 14 17 14 15 0 -20 -8 -22 -14 -41 -11 -43 4 -5 36 61 36 76 0 6 5 11
11 11 14 0 5 -31 -32 -105 -20 -41 -23 -52 -9 -35 26 33 26 14 -1 -29 -11 -18
-18 -36 -15 -39 4 -3 7 -3 9 -1 1 2 20 39 42 81 22 43 44 78 48 78 10 0 10 1
-26 -67 -32 -62 -29 -72 4 -13 22 39 50 59 29 21 -17 -33 -12 -38 35 -27 40 9
62 26 34 26 -5 0 -7 5 -4 10 3 6 23 10 43 10 20 1 48 7 62 15 31 18 64 19 57
3 -25 -68 -12 -82 15 -16 19 44 35 48 19 4 -6 -15 -7 -26 -1 -26 5 0 12 9 15
20 3 11 10 20 15 20 10 0 86 -119 100 -156 6 -14 13 -47 16 -74 l6 -48 -59
-43 c-71 -53 -147 -81 -183 -67 -61 24 -67 21 -94 -37 -14 -30 -27 -55 -31
-55 -3 0 4 18 15 41 22 43 20 60 -4 40 -10 -9 -16 -9 -21 -1 -5 8 -11 5 -21
-7 -7 -10 -14 -13 -14 -7 0 6 -14 10 -31 10 -27 0 -34 -6 -52 -43 -12 -24 -25
-43 -29 -43 -12 0 -10 10 11 38 31 45 43 72 31 72 -6 0 -20 -20 -32 -45 -12
-25 -26 -45 -30 -45 -12 0 -10 6 22 58 17 27 30 52 30 56 0 17 -20 -8 -49 -59
-17 -30 -38 -55 -46 -55 -14 0 -14 3 -1 28 8 15 24 41 35 57 12 17 21 35 21
40 0 6 -20 -21 -45 -60 -24 -38 -45 -65 -45 -59 0 5 14 31 30 57 32 51 34 57
22 57 -5 0 -14 -11 -20 -24 -18 -41 -63 -108 -68 -103 -3 2 12 35 32 71 20 37
34 69 31 72 -3 3 -24 -31 -47 -75 -31 -60 -46 -79 -61 -78 -26 2 -24 12 12 82
17 33 27 56 21 50 -5 -5 -22 -34 -37 -63 -29 -55 -51 -80 -35 -38 5 14 21 48
35 76 15 29 24 54 21 57 -3 3 -12 -12 -21 -32 -8 -21 -18 -36 -21 -32 -3 3 0
15 6 27 6 12 10 23 8 26 -3 2 -20 -28 -38 -66 -19 -39 -38 -70 -42 -70 -5 0 3
23 18 51 14 28 23 53 20 56 -2 3 -16 -18 -31 -47 -30 -58 -54 -64 -67 -14 -7
28 -12 31 -65 40 -50 8 -60 13 -72 39 -8 16 -24 37 -35 47 -12 9 -16 17 -10
18 6 0 21 -9 34 -20 16 -13 37 -20 67 -20 38 0 46 -4 61 -30 24 -41 46 -49 37
-13 -9 41 -72 100 -124 119 -26 9 -56 29 -69 43 -23 26 -58 125 -53 149 1 8
-3 20 -10 28 -7 8 -14 29 -15 47 -2 18 -4 39 -5 47 -1 8 -1 68 1 133 2 117 -3
145 -20 117 -9 -14 -11 -38 -15 -134 -1 -16 -7 -32 -14 -34 -10 -3 -11 2 -6
19 4 13 9 56 10 96 3 86 22 123 61 123 24 0 26 -3 21 -30z m-1396 -122 c-6
-46 -16 -131 -22 -190 -10 -92 -15 -108 -29 -108 -22 0 -30 20 -25 62 2 18 9
82 16 143 9 88 16 117 37 147 14 21 27 36 30 34 2 -3 -1 -42 -7 -88z m-599 52
c26 -6 54 -7 63 -4 8 3 15 2 15 -4 0 -6 17 -16 38 -22 69 -22 103 -42 98 -56
-12 -31 12 -63 51 -69 57 -10 73 -15 73 -25 0 -11 -87 -100 -98 -100 -5 0 -36
11 -70 25 -34 14 -75 25 -90 24 -45 -2 -286 13 -295 18 -15 9 -394 3 -442 -7
-110 -25 -110 -25 -134 13 -32 53 -28 80 15 96 20 7 50 10 68 7 25 -5 40 -1
67 19 53 39 111 64 149 66 19 0 58 8 85 18 42 15 76 17 205 14 85 -3 176 -8
202 -13z m7088 -80 c-14 -90 -30 -144 -49 -165 -19 -20 -37 -72 -31 -90 1 -5
4 -36 5 -68 3 -49 0 -59 -17 -68 -16 -8 -23 -8 -29 2 -10 17 -4 71 11 98 5 11
10 36 10 56 0 20 9 53 20 75 15 30 50 202 50 247 0 4 9 -1 20 -12 17 -18 18
-27 10 -75z m-2059 23 c34 -22 56 -43 54 -51 -3 -7 0 -10 5 -7 6 3 15 3 21 -1
8 -5 4 -13 -12 -26 -23 -19 -23 -19 -1 -8 16 8 22 8 22 0 0 -6 5 -8 12 -4 6 4
8 3 5 -4 -9 -14 3 -43 14 -36 5 3 9 2 8 -3 -3 -20 2 -27 11 -13 8 12 10 12 16
-3 3 -10 5 -19 3 -21 -2 -1 -32 -23 -65 -48 -34 -25 -72 -51 -84 -58 -12 -6
-19 -14 -16 -17 3 -3 36 17 73 44 90 65 101 69 109 36 5 -18 2 -30 -8 -37 -18
-13 -12 -37 7 -30 9 4 15 -7 20 -35 8 -50 -3 -72 -19 -39 -6 12 -21 24 -32 26
-11 2 -82 -37 -172 -95 -83 -54 -173 -111 -199 -128 -51 -32 -65 -61 -39 -80
13 -10 9 -15 -28 -33 -24 -12 -49 -22 -55 -22 -12 0 -58 -30 -93 -60 -9 -8
-39 -26 -65 -39 -26 -12 -57 -28 -68 -34 -18 -9 -19 -9 -6 7 8 10 28 24 45 33
17 8 40 23 51 33 19 17 68 47 128 77 23 12 39 43 22 43 -13 0 -75 -36 -148
-86 -43 -30 -82 -54 -86 -54 -4 0 -29 -21 -54 -46 -26 -25 -47 -42 -47 -37 0
5 4 13 9 18 6 6 2 25 -9 48 -14 28 -15 37 -6 34 15 -6 42 10 93 54 17 15 40
32 50 37 10 6 15 14 11 17 -4 4 -29 -12 -55 -35 -54 -47 -106 -80 -65 -40 34
33 19 36 -22 5 -20 -15 -37 -22 -37 -16 -1 6 -2 17 -3 24 -1 6 -5 15 -11 20
-6 4 2 18 20 33 l30 26 -35 -20 c-34 -19 -35 -19 -54 -1 -19 19 -19 20 9 49
16 16 37 32 47 36 10 3 18 10 18 16 0 6 -15 -1 -34 -16 -37 -28 -52 -33 -40
-14 4 7 -9 2 -29 -10 -57 -33 -44 -8 21 40 31 24 63 49 70 56 25 23 2 12 -47
-23 -55 -40 -73 -45 -45 -13 23 26 5 17 -47 -24 -42 -32 -49 -34 -49 -12 0 9
-5 12 -12 8 -9 -5 -9 -2 1 9 17 21 8 22 -23 2 -21 -14 -24 -14 -29 -1 -4 9 -1
18 5 22 7 5 8 2 3 -6 -5 -8 -3 -11 6 -8 8 3 13 10 12 16 -1 5 5 16 15 24 15
12 16 11 3 -4 -7 -10 -9 -18 -3 -18 15 0 33 26 24 35 -4 5 -2 5 5 1 11 -6 125
64 139 85 9 14 0 11 -36 -16 -35 -26 -56 -33 -45 -15 3 6 -1 7 -10 4 -9 -4
-14 -13 -11 -20 3 -8 2 -14 -2 -15 -29 -3 -49 -10 -71 -27 -44 -31 -55 -37
-46 -22 6 10 3 12 -11 7 -14 -5 -12 -2 6 12 14 11 25 25 25 31 0 6 23 31 50
56 28 25 41 41 29 35 -11 -5 -44 -31 -72 -56 -29 -26 -52 -43 -52 -38 0 20
132 123 157 123 7 0 13 6 13 13 1 14 190 158 190 143 0 -2 -23 -21 -50 -41
-28 -21 -49 -40 -46 -43 3 -2 14 1 23 8 10 7 -2 -6 -27 -29 -71 -64 -34 -48
64 29 90 71 129 95 66 40 -44 -37 -31 -39 18 -3 52 38 61 47 37 39 -18 -6 -18
-5 -5 7 18 18 189 137 196 137 2 0 0 -9 -6 -20 -6 -11 -15 -18 -19 -16 -4 3
-17 -2 -27 -10 -19 -15 -19 -15 1 -10 19 6 19 5 1 -8 -10 -8 -15 -19 -12 -24
3 -6 -1 -12 -9 -16 -8 -3 -15 -11 -15 -17 0 -7 8 -5 20 6 11 10 17 22 14 27
-3 5 2 8 12 6 10 -2 19 2 19 9 0 6 4 15 9 20 5 5 6 3 2 -4 -12 -21 9 -15 50
15 56 40 68 47 60 33 -4 -6 -41 -35 -82 -64 -109 -75 -135 -95 -169 -125 -17
-15 -49 -40 -73 -56 -24 -16 -46 -34 -49 -39 -10 -16 13 0 136 92 177 134 394
280 415 281 5 0 36 -17 67 -37z m1349 -103 c0 -5 22 -10 49 -10 27 0 62 -3 79
-6 l30 -6 -29 -47 c-17 -25 -41 -84 -55 -131 -59 -198 -84 -244 -153 -279 -20
-11 -47 -31 -60 -45 -14 -14 -29 -26 -35 -26 -6 0 -1 8 11 18 15 11 20 21 14
31 -5 7 -14 10 -20 7 -6 -4 -9 -11 -6 -16 6 -10 -53 -55 -62 -47 -2 3 9 13 27
22 18 9 30 19 27 21 -4 5 -87 -44 -87 -51 0 -2 8 -2 17 -1 26 2 23 -26 -6 -52
l-26 -24 43 21 c23 12 42 26 42 32 0 6 -6 7 -12 4 -7 -4 -4 1 6 9 43 35 49 10
9 -29 -32 -30 -70 -48 -84 -39 -6 3 -19 -2 -30 -12 -10 -9 -19 -12 -19 -7 0 6
21 24 46 41 25 16 41 32 36 36 -12 7 -80 -29 -99 -52 -10 -12 -14 -12 -26 -1
-8 8 -24 20 -35 28 -17 12 -19 18 -9 30 10 12 9 14 -7 8 -16 -6 -17 -5 -6 8
14 17 35 21 25 5 -10 -16 11 -12 25 5 11 13 10 14 -4 9 -28 -11 -18 2 24 30
51 33 64 33 25 -1 l-30 -26 28 17 c16 10 31 15 34 12 4 -4 -76 -60 -102 -69
-5 -3 -7 -7 -4 -11 9 -10 205 128 199 139 -3 6 -13 9 -23 8 -12 -2 -16 1 -11
10 4 7 3 9 -2 4 -5 -5 -9 -14 -9 -20 0 -5 -6 -12 -14 -15 -9 -3 -11 0 -6 8 10
16 -25 -2 -86 -45 -57 -41 -109 -68 -109 -58 0 10 173 123 188 123 7 0 12 5
12 11 0 6 -6 9 -14 6 -8 -3 -16 -1 -18 4 -2 5 -12 3 -23 -5 -19 -14 -19 -15 5
-9 14 3 -5 -14 -45 -41 -65 -42 -115 -64 -71 -31 23 18 14 20 -16 4 -15 -8
-17 -13 -8 -19 9 -6 6 -11 -11 -21 -23 -11 -23 -11 -9 6 14 16 13 17 -8 11
-36 -12 -26 -2 48 48 39 25 70 49 70 52 0 6 -11 0 -65 -36 -22 -15 -50 -32
-62 -39 -41 -21 -24 -2 29 34 29 19 45 35 36 35 -9 0 -20 -4 -23 -10 -8 -13
-46 -33 -44 -23 4 22 -3 23 -30 4 -27 -20 -29 -20 -45 -2 -16 17 -14 20 21 46
45 33 70 62 83 93 6 13 14 21 19 17 14 -8 61 42 77 81 14 33 15 33 61 28 26
-3 50 -7 53 -9 22 -13 190 118 190 148 0 13 50 67 62 67 4 0 8 -4 8 -10z
m-7377 -102 c5 -77 25 -170 63 -289 6 -18 -17 -30 -92 -49 -42 -11 -60 -11
-97 0 -52 14 -57 21 -63 110 -5 59 -2 71 29 137 41 83 115 181 138 182 13 1
17 -15 22 -91z m4019 -20 c19 -57 40 -102 45 -101 18 4 45 -65 54 -139 9 -74
-7 -251 -36 -383 -8 -38 -15 -86 -16 -105 l-1 -35 -9 40 c-13 63 -10 140 6
187 45 134 50 223 16 311 -6 16 -11 40 -11 55 0 15 -26 71 -60 127 -33 55 -60
105 -60 111 0 11 20 34 31 34 3 0 22 -46 41 -102z m3504 -22 c-14 -35 -26 -70
-26 -78 0 -22 -39 -117 -82 -201 -40 -77 -55 -91 -119 -110 -10 -3 -19 -21
-23 -45 -3 -22 -17 -53 -30 -69 -13 -16 -29 -48 -35 -71 -13 -48 -21 -50 -96
-26 -152 50 -190 68 -251 122 -49 42 -174 184 -174 197 0 18 33 -3 80 -51 89
-91 227 -202 268 -214 20 -6 54 -18 75 -27 35 -15 38 -15 52 3 8 10 15 31 15
46 0 15 6 31 14 35 7 4 19 19 25 31 19 35 81 102 96 102 19 0 88 81 107 125
23 55 48 133 57 177 5 20 21 63 37 95 37 76 44 46 10 -41z m-6542 39 c116 -4
246 -33 246 -55 0 -17 -72 -71 -88 -66 -31 9 -185 26 -240 26 -29 0 -62 -4
-72 -10 -31 -16 -80 -14 -180 9 -52 13 -112 25 -133 28 -21 3 -36 11 -34 17 1
6 27 23 57 38 54 27 58 27 190 22 74 -2 189 -7 254 -9z m1309 -117 c9 -5 17
-17 17 -28 0 -10 10 -22 22 -26 17 -5 28 0 48 23 22 27 30 30 70 27 94 -7 253
-33 262 -42 16 -16 -21 -101 -55 -125 -29 -22 -29 -23 -24 -96 4 -52 2 -82 -8
-100 -10 -21 -26 -104 -29 -156 -2 -26 -52 -59 -93 -62 -37 -2 -44 1 -49 21
-3 12 -4 40 -2 62 3 38 2 39 -34 42 -26 2 -35 7 -32 16 4 10 -9 15 -43 20 -26
4 -61 9 -78 12 l-30 5 25 -15 c22 -13 23 -15 5 -15 -26 1 -74 17 -55 18 31 3
-14 21 -52 21 -21 0 -57 7 -82 15 -25 9 -89 20 -144 25 -54 5 -117 12 -140 16
-29 4 -42 3 -42 -5 0 -6 9 -11 21 -11 11 0 18 -4 15 -9 -3 -5 13 -12 37 -15
23 -4 53 -10 67 -13 14 -3 22 -2 18 2 -4 4 -22 11 -40 16 -25 6 -17 7 32 4
107 -7 108 -7 76 -14 -23 -5 -41 -27 -96 -115 -38 -60 -74 -114 -82 -121 -12
-13 -62 -11 -201 9 -35 4 -50 18 -42 39 7 17 29 13 56 -10 32 -27 95 22 74 57
-9 15 -25 2 -25 -21 0 -10 -7 -19 -15 -19 -8 0 -15 5 -15 10 0 6 5 10 10 10 6
0 10 5 10 10 0 15 -26 12 -40 -5 -16 -19 -40 -19 -40 0 0 9 11 33 25 56 14 22
42 74 61 117 19 42 39 84 44 93 5 9 11 37 15 62 4 25 16 54 26 63 11 10 31 44
46 76 14 33 35 65 46 73 16 11 65 14 231 13 116 0 219 -5 229 -10z m2757 -95
c0 -7 -4 -13 -9 -13 -9 0 -81 -89 -81 -101 0 -4 17 -11 38 -17 20 -5 29 -10
20 -11 -10 -1 -18 -8 -18 -16 0 -19 -3 -19 -49 5 -38 19 -39 20 -29 57 5 21
14 58 19 82 11 51 6 46 44 58 26 9 33 8 47 -11 10 -11 18 -27 18 -33z m1090
35 c-15 -13 -18 -19 -7 -15 9 4 25 10 35 13 9 4 -2 -8 -25 -26 -47 -35 -58
-50 -18 -24 14 9 28 14 31 11 3 -2 -22 -24 -55 -47 -33 -24 -58 -46 -56 -51 3
-4 0 -11 -6 -15 -8 -4 -9 -3 -5 4 10 16 -4 15 -23 -2 -9 -7 -38 -26 -66 -41
-42 -22 -46 -23 -25 -5 27 24 37 55 14 46 -8 -3 -21 -3 -30 1 -23 9 35 44 61
37 14 -4 16 -3 7 4 -10 6 5 21 55 54 102 69 163 99 113 56z m-1240 -119 c-12
-35 -18 -65 -13 -66 28 -10 31 -19 22 -63 -5 -25 -13 -72 -18 -105 -5 -33 -16
-91 -25 -130 -13 -52 -15 -93 -10 -165 5 -84 3 -103 -19 -170 -13 -41 -28 -94
-32 -117 -6 -40 -66 -133 -84 -133 -5 0 -11 37 -15 83 -4 45 -9 98 -11 117 -2
19 0 44 5 55 5 11 15 67 23 125 8 58 26 144 41 193 14 48 25 90 24 95 -4 17
15 112 34 172 17 53 53 129 86 185 16 25 11 -20 -8 -76z m3265 52 c0 -16 -10
-40 -21 -53 -16 -17 -22 -37 -23 -77 -1 -60 -16 -87 -32 -59 -7 12 -19 16 -41
13 -18 -2 -38 1 -45 7 -9 7 -17 7 -27 -1 -10 -8 -16 -9 -21 -1 -3 6 -11 7 -17
4 -6 -4 -14 -1 -18 7 -7 10 -17 6 -44 -15 -20 -15 -36 -22 -36 -15 0 6 -6 9
-14 6 -7 -3 -19 0 -26 6 -10 9 -14 9 -17 0 -5 -15 -43 -18 -43 -3 0 11 -32 1
-41 -13 -4 -5 -16 -4 -29 3 -18 9 -24 9 -30 0 -6 -9 -10 -6 -15 9 -3 11 -13
21 -21 21 -8 0 -14 5 -14 11 0 22 -45 59 -72 59 -17 0 -28 5 -28 14 0 16 20
20 185 36 99 10 140 16 227 34 23 5 29 2 34 -19 5 -19 11 -24 23 -19 46 19 51
17 51 -16 0 -39 20 -36 33 5 13 39 38 64 73 75 45 13 49 12 49 -19z m-750
-166 c-17 -47 -41 -95 -52 -108 -11 -12 -45 -63 -76 -112 -63 -102 -90 -130
-129 -140 -34 -9 -35 1 -6 52 27 48 27 47 34 41 3 -4 -2 -20 -10 -37 -9 -16
-16 -34 -16 -38 1 -13 40 41 40 55 0 6 7 12 15 12 8 0 15 8 15 18 0 27 23 84
47 117 12 17 25 46 30 64 7 25 19 39 53 57 33 18 50 35 62 64 31 71 26 42 -7
-45z m-3449 -70 c-9 -25 -16 -52 -16 -61 0 -8 -7 -26 -16 -40 -9 -13 -19 -44
-23 -67 -9 -72 -2 -389 10 -403 6 -7 13 -42 17 -76 5 -62 6 -64 86 -151 59
-65 81 -96 82 -117 1 -15 4 -35 8 -45 4 -11 2 -15 -6 -13 -7 3 -13 11 -13 19
0 8 -21 30 -46 51 -25 20 -55 48 -66 62 -11 14 -23 22 -27 18 -11 -11 -26 21
-20 42 4 12 2 16 -4 12 -13 -8 -44 37 -49 68 -2 11 -5 44 -9 71 -3 28 -7 66
-10 86 -6 35 9 247 26 384 12 94 46 207 67 223 25 19 28 -4 9 -63z m-1146 15
c5 0 23 -13 39 -29 l30 -29 -51 -33 c-43 -28 -61 -33 -121 -35 l-69 -3 41 30
c44 33 51 42 24 32 -11 -4 -14 -3 -9 6 6 10 3 9 -13 0 -12 -8 -16 -16 -10 -20
7 -4 5 -9 -5 -12 -26 -10 -30 14 -5 31 55 39 115 71 127 67 8 -3 18 -5 22 -5z
m2416 -36 c27 -26 59 -75 78 -115 32 -70 33 -71 18 -122 -20 -68 -24 -278 -7
-350 27 -115 47 -159 107 -230 78 -93 91 -114 82 -128 -4 -7 -3 -9 3 -6 13 8
66 -109 88 -193 14 -56 14 -64 1 -85 -21 -32 -70 -21 -74 17 -2 15 -9 32 -17
38 -11 9 -18 5 -36 -19 -13 -17 -27 -31 -32 -31 -6 0 -3 8 6 18 36 39 9 66
-30 31 l-26 -24 17 27 c15 22 15 26 2 24 -8 -1 -25 -11 -37 -22 l-23 -19 23
33 c21 30 17 44 -6 21 -8 -8 -11 -6 -10 7 1 12 -5 19 -15 19 -9 0 -20 4 -25 9
-4 5 -3 6 5 2 7 -4 12 -1 12 8 0 22 -17 20 -32 -4 -7 -11 -17 -20 -22 -20 -5
0 -2 8 8 19 16 18 13 51 -6 51 -11 0 -57 -46 -75 -75 -11 -18 -12 -17 -6 9 5
23 3 27 -8 21 -8 -5 -6 1 5 13 10 12 23 19 27 16 5 -3 6 2 3 11 -6 14 -8 14
-24 0 -9 -8 -20 -12 -24 -8 -4 5 -6 3 -4 -2 2 -6 0 -10 -4 -10 -4 0 -14 -9
-22 -20 -8 -11 -17 -17 -21 -14 -3 4 10 26 30 49 25 30 32 45 24 50 -6 4 -9
13 -5 19 5 7 1 8 -10 4 -13 -5 -15 -3 -10 8 4 8 -11 -6 -33 -31 -40 -43 -56
-75 -26 -50 8 7 15 9 15 4 0 -4 14 5 30 21 41 39 38 19 -5 -30 -20 -23 -32
-32 -28 -20 6 18 5 18 -10 6 -11 -9 -17 -10 -17 -2 0 6 -7 11 -17 11 -15 0
-15 1 0 18 10 10 17 23 17 28 0 5 -5 1 -11 -8 -5 -10 -14 -18 -20 -18 -10 0
12 39 49 84 16 20 20 31 12 36 -9 5 -9 9 -1 14 6 4 11 12 11 19 0 19 -30 -17
-35 -42 -5 -25 -15 -41 -15 -24 0 5 -10 9 -22 7 -13 -1 -23 -3 -23 -4 0 -1
-10 -3 -22 -4 -12 -1 -20 1 -17 5 2 4 0 11 -6 14 -8 5 -8 11 0 20 13 16 53 8
43 -9 -3 -6 8 2 26 19 20 19 29 35 25 45 -4 8 -6 24 -6 35 1 15 -1 17 -8 5 -5
-8 -7 -17 -5 -21 5 -7 -32 -49 -43 -49 -17 1 -34 18 -23 24 6 4 11 1 11 -6 0
-7 11 4 25 24 27 40 31 53 13 42 -6 -4 -8 -3 -5 4 10 15 -3 43 -16 35 -6 -3
-7 -1 -3 5 4 7 2 20 -3 29 -10 17 -11 16 -17 -4 -8 -27 -20 -30 -28 -5 -3 9
-4 5 -2 -11 2 -15 -1 -30 -5 -33 -15 -9 -10 57 6 72 18 18 20 49 3 38 -8 -5
-9 -2 -5 9 4 10 10 25 14 34 5 12 2 15 -10 10 -11 -4 -17 1 -21 21 -20 110
-25 414 -6 437 13 16 22 55 11 55 -4 0 -11 -4 -17 -10 -6 -6 -10 -2 -11 12 -2
18 0 20 7 8 5 -8 10 -12 10 -7 0 17 2 23 12 34 5 6 16 9 24 6 12 -4 12 -8 2
-20 -16 -19 -19 -43 -6 -43 6 0 8 7 5 14 -4 10 -1 13 9 9 9 -3 14 1 14 14 0
20 18 43 33 43 4 0 5 -6 1 -12 -5 -7 20 11 54 41 34 29 65 57 68 62 10 17 24
9 70 -37z m478 -32 c5 -8 11 -52 21 -162 3 -36 22 -143 40 -238 19 -95 40
-203 45 -240 6 -37 18 -90 27 -119 14 -44 14 -58 3 -98 l-13 -47 -19 38 c-10
21 -15 46 -12 56 3 11 -2 30 -10 44 -12 17 -15 37 -11 67 4 27 -8 119 -35 267
-64 348 -71 403 -61 438 2 5 20 1 25 -6z m-5114 -52 c0 -23 4 -30 20 -30 16 0
20 -7 20 -32 0 -18 7 -42 16 -53 10 -14 13 -32 8 -61 -4 -28 -1 -51 10 -71 16
-32 56 -63 81 -63 8 0 52 -13 98 -28 64 -22 92 -27 127 -21 46 7 157 -8 175
-23 5 -5 3 -8 -5 -8 -26 0 -134 -56 -156 -81 -21 -23 -73 -152 -78 -194 -1
-11 -5 -20 -7 -19 -12 2 -220 83 -319 125 -63 26 -140 55 -171 64 -92 26 -92
25 -74 130 23 130 62 275 80 295 11 12 14 26 9 44 -11 44 9 56 92 56 l74 0 0
-30z m2795 -26 c-16 -12 -17 -16 -6 -23 7 -5 11 -13 7 -19 -5 -9 17 -19 49
-22 6 -1 14 -8 18 -16 12 -21 27 -17 59 13 l28 27 0 -46 c0 -39 -3 -47 -22
-52 -37 -10 -342 -7 -358 4 -12 8 -8 15 23 41 27 23 35 34 28 43 -8 9 -2 21
19 41 17 16 30 23 30 16 0 -11 3 -11 18 0 9 7 6 1 -7 -14 -16 -18 -20 -27 -11
-27 8 0 -1 -16 -21 -37 -18 -21 -25 -30 -14 -22 11 9 25 15 31 12 6 -2 19 6
29 17 10 11 23 20 29 20 6 1 25 18 41 39 20 26 33 36 40 29 7 -6 3 -14 -10
-24z m-1095 -113 c-11 -17 -16 -32 -11 -35 5 -4 12 -2 16 4 3 5 16 15 28 21
18 9 16 5 -8 -20 -16 -18 -31 -27 -33 -21 -3 7 -20 -3 -40 -22 -19 -18 -31
-27 -27 -19 5 10 4 12 -4 7 -6 -4 -9 -11 -6 -16 3 -4 -2 -13 -10 -20 -11 -9
-15 -9 -15 -1 0 7 -5 9 -11 5 -16 -10 10 -24 30 -16 14 5 14 3 2 -11 -7 -9
-11 -17 -7 -17 10 0 46 34 46 43 0 5 -7 4 -15 -3 -26 -22 -16 -4 12 21 15 13
21 16 14 7 -22 -30 -7 -20 38 23 56 53 67 41 13 -14 -23 -24 -42 -45 -42 -49
0 -3 24 19 54 49 37 37 58 52 69 47 9 -3 14 -11 10 -18 -4 -6 0 -6 9 2 9 7 20
12 24 10 5 -1 20 4 32 11 13 7 26 10 29 7 7 -6 -207 -226 -220 -226 -5 0 30
43 78 95 49 53 86 98 83 101 -3 2 -40 -34 -83 -81 -43 -47 -80 -83 -83 -80 -3
3 11 22 31 43 20 21 37 44 37 52 0 9 -3 11 -8 5 -13 -19 -96 -85 -106 -85 -5
0 1 11 14 25 13 14 21 27 18 30 -2 3 -15 -6 -28 -20 -25 -27 -42 -33 -35 -12
3 6 1 18 -4 26 -8 12 -14 13 -37 3 -38 -18 -42 -6 -8 20 16 13 61 53 99 90 39
37 71 68 73 68 2 0 -6 -13 -18 -29z m-305 -49 c-2 -9 -4 -17 -5 -17 -1 0 -3
-15 -6 -32 -2 -18 0 -33 5 -33 4 0 25 -13 46 -30 26 -21 44 -28 60 -24 16 4
30 -1 44 -15 12 -12 32 -21 45 -21 13 0 27 -7 30 -16 11 -30 6 -37 -14 -19
-18 17 -21 17 -45 1 -27 -18 -32 -45 -13 -64 17 -17 38 -15 61 6 20 17 20 16
13 -136 -4 -84 -10 -160 -13 -167 -3 -8 -20 -24 -39 -35 -25 -16 -38 -19 -52
-11 -10 5 -53 11 -95 12 -42 1 -77 5 -77 9 0 4 11 13 25 20 20 11 35 11 82 1
32 -7 68 -17 80 -21 13 -6 27 -4 38 4 16 12 15 16 -18 53 -35 38 -88 63 -136
63 -30 0 -99 -36 -128 -68 -39 -42 -45 -18 -38 158 10 247 10 251 2 328 -7 70
-7 72 12 60 15 -9 25 -9 46 0 15 7 30 10 35 7 4 -3 13 2 20 10 16 19 40 3 35
-23z m10353 -23 c40 -14 52 -54 43 -140 -8 -74 -20 -99 -58 -125 -26 -17 -53
-19 -328 -21 -165 -1 -292 1 -282 3 28 9 19 24 -14 24 -17 0 -39 5 -50 10 -21
12 -26 1 -7 -18 14 -14 -1 -16 -22 -2 -20 12 1 49 62 111 51 51 112 83 222
118 128 41 369 63 434 40z m-8595 -64 c4 -8 1 -17 -5 -21 -7 -4 -8 -3 -4 4 4
7 3 12 -3 12 -15 0 -21 -14 -11 -30 7 -11 12 -11 27 -1 10 8 -6 -10 -36 -38
-49 -48 -51 -51 -25 -45 17 4 26 3 21 -2 -5 -5 -9 -7 -10 -4 -1 3 -17 -5 -34
-18 -18 -13 -43 -25 -56 -28 -20 -3 -23 0 -23 24 1 15 5 33 9 40 5 7 3 12 -4
12 -8 0 -6 6 4 18 10 10 15 21 12 24 -9 8 36 43 59 45 32 2 55 8 62 16 10 10
11 9 17 -8z m-2483 -226 c-12 -22 -19 -46 -17 -52 2 -7 12 7 22 31 9 23 21 42
26 42 5 0 3 -13 -6 -30 -20 -38 -19 -39 10 -36 21 3 26 -2 31 -31 5 -27 2 -39
-15 -56 -11 -13 -22 -33 -24 -45 -4 -24 -27 -54 -27 -35 0 8 -9 9 -31 3 -35
-10 -65 3 -72 32 -3 10 -13 18 -22 18 -10 0 -15 -5 -12 -14 7 -17 -52 -76 -75
-76 -11 0 -29 -25 -49 -67 -39 -80 -37 -78 -45 -70 -4 3 1 23 11 43 9 20 18
49 19 63 1 29 23 51 43 44 7 -3 13 -1 13 3 0 5 13 15 29 22 16 7 31 22 34 32
3 11 4 20 3 20 -23 0 -65 -26 -70 -43 -6 -20 -7 -21 -17 -4 -14 23 -36 22 -50
-4 -8 -16 -14 -18 -22 -9 -9 8 -8 14 6 21 9 6 15 15 12 20 -4 5 -11 7 -16 4
-5 -4 -9 2 -9 11 0 14 3 15 12 6 18 -18 28 -15 28 8 0 11 4 20 9 20 4 0 12 14
17 31 5 17 13 30 18 29 5 -1 13 4 18 12 6 8 7 2 3 -19 -4 -20 -3 -33 3 -33 16
0 49 47 62 86 7 20 14 34 16 31 2 -2 -1 -18 -7 -36 -18 -50 4 -59 25 -10 10
22 20 38 23 36 2 -3 0 -14 -6 -25 -17 -32 -13 -47 14 -48 14 -1 25 2 25 8 0 5
4 7 8 4 5 -3 16 11 25 30 20 40 21 48 7 39 -6 -3 -7 1 -3 10 4 12 8 13 13 5 5
-8 9 -7 13 4 4 9 9 16 12 16 3 0 -4 -18 -15 -41z m11162 -309 c28 -58 32 -114
13 -162 -31 -80 -131 -162 -216 -178 -62 -12 -245 -13 -509 -1 -102 4 -189 4
-195 -1 -10 -9 17 -11 128 -9 57 1 77 -2 77 -11 0 -9 3 -9 8 -2 5 7 29 8 77 3
39 -4 147 -7 240 -5 152 3 179 6 251 30 45 14 87 33 94 41 28 34 26 9 -7 -97
-42 -135 -59 -170 -110 -225 -30 -34 -54 -48 -113 -67 -41 -14 -91 -27 -110
-30 -19 -3 -53 -8 -75 -12 -22 -3 -98 -7 -170 -8 l-130 -2 3 -44 c4 -53 12
-67 12 -22 0 42 24 42 38 0 9 -26 11 -27 7 -6 -3 15 -1 29 4 33 6 3 12 -12 14
-32 l4 -38 1 43 c1 23 7 42 13 42 5 0 8 -4 5 -9 -3 -5 1 -14 9 -21 12 -10 15
-9 15 5 0 14 3 15 15 5 11 -9 15 -9 15 -1 0 7 4 10 9 6 6 -3 10 -69 10 -150
-1 -79 2 -148 5 -154 4 -5 2 -12 -4 -16 -6 -4 -11 11 -12 37 l-1 43 -4 -44
c-4 -37 -7 -42 -24 -38 -10 3 -19 1 -19 -4 0 -5 -4 -9 -10 -9 -6 0 -11 42 -12
103 l-2 102 -6 -110 c-6 -116 -10 -124 -15 -37 -5 81 -15 75 -16 -9 0 -51 -3
-68 -9 -54 -5 11 -7 52 -4 90 2 39 1 111 -4 160 -9 88 -9 87 -9 -63 0 -84 -3
-156 -7 -159 -3 -4 -7 47 -8 113 l-2 119 -6 -115 c-3 -63 -7 -101 -8 -83 -4
60 -21 45 -20 -17 0 -33 -2 -63 -6 -67 -3 -3 -6 19 -6 50 0 32 -4 57 -9 57 -4
0 -6 -22 -3 -49 4 -42 2 -49 -16 -53 -19 -5 -21 0 -27 51 -10 87 -13 92 -13
18 1 -37 -2 -70 -5 -74 -4 -3 -7 28 -7 70 0 43 -3 77 -7 77 -5 0 -8 -36 -8
-80 0 -43 -3 -76 -7 -72 -4 4 -8 76 -9 160 0 83 -4 152 -7 152 -4 0 -6 -68 -4
-151 2 -99 0 -149 -7 -145 -5 3 -12 -2 -14 -11 -4 -14 -5 -13 -6 5 0 12 4 22
9 22 6 0 10 7 10 16 0 8 -4 13 -9 9 -5 -3 -12 7 -14 22 -3 19 -5 13 -6 -17 -1
-25 -6 -52 -11 -60 -7 -10 -10 30 -10 123 0 102 3 136 12 131 7 -5 8 -3 3 5
-18 29 -27 -14 -28 -133 -1 -69 -3 -121 -5 -116 -6 18 -20 11 -25 -12 -2 -13
-5 10 -6 51 -1 91 -8 90 -13 -2 -5 -114 -18 -86 -18 38 0 75 4 114 10 110 6
-3 10 -1 10 4 0 6 -7 11 -15 11 -12 0 -15 -18 -17 -97 0 -54 -1 -106 0 -115 1
-10 -3 -18 -9 -18 -6 0 -9 28 -8 75 2 41 0 78 -4 81 -4 4 -8 -31 -8 -77 -1
-46 -3 -76 -6 -66 -6 22 -20 22 -26 0 -3 -10 -5 80 -4 200 l2 217 -22 0 c-12
0 -25 5 -28 10 -4 7 -12 7 -25 0 -10 -6 -21 -6 -24 -2 -4 7 -40 8 -56 2 -3 -1
-8 -2 -11 -2 -79 10 -159 9 -159 -1 0 -8 -3 -8 -8 -2 -10 16 -72 18 -89 3 -10
-8 -17 -9 -21 -1 -4 7 -51 12 -117 13 -60 1 -121 3 -135 5 -14 2 -31 4 -37 4
-8 1 -13 16 -13 41 0 33 -21 143 -57 299 -5 19 -3 22 8 16 8 -5 5 1 -5 13 -14
17 -16 22 -5 22 8 0 20 9 27 21 20 32 26 15 7 -18 l-17 -28 22 25 c16 18 20
20 16 7 -4 -12 -2 -16 6 -11 8 5 9 2 5 -9 -13 -33 8 -16 36 29 17 29 33 44 41
41 7 -3 19 0 25 6 21 21 11 -6 -15 -40 -14 -19 -24 -37 -21 -39 3 -3 19 15 37
41 32 47 57 57 26 11 -21 -33 -20 -43 2 -23 10 10 21 14 25 11 3 -3 13 6 22
20 30 45 38 28 11 -19 -19 -31 -23 -45 -13 -45 7 0 27 20 45 45 36 51 63 62
35 14 -19 -33 -28 -41 -105 -90 -27 -17 -48 -35 -48 -41 0 -5 18 4 41 20 23
17 47 28 55 25 8 -3 20 0 28 6 7 6 55 25 107 42 81 27 112 32 223 35 70 2 132
6 136 9 5 3 11 1 15 -5 4 -6 13 -7 23 -2 9 5 43 8 75 8 32 -1 60 1 62 4 2 4
23 4 47 1 44 -7 85 6 108 34 7 8 18 15 24 15 6 -1 1 -9 -11 -19 -22 -18 -32
-38 -15 -28 4 3 16 1 27 -3 13 -5 27 -2 39 9 11 9 16 10 12 4 -9 -16 -1 -16
25 -3 13 8 19 7 19 0 0 -7 6 -8 18 -1 9 5 58 7 107 6 50 -2 122 1 160 7 39 5
96 13 127 18 70 10 126 37 144 70 7 14 21 51 30 83 9 35 21 57 30 57 8 0 14 4
14 10 0 5 -8 7 -17 4 -16 -5 -16 -4 1 10 10 8 23 13 27 10 5 -3 9 0 9 6 0 26
46 4 62 -30z m-3162 20 c133 -1 222 -17 260 -45 8 -6 44 -25 80 -43 54 -26
180 -126 180 -143 0 -3 19 -26 43 -51 23 -25 49 -59 57 -74 8 -16 22 -41 32
-56 22 -33 49 -103 54 -143 2 -16 8 -43 14 -60 13 -41 17 -234 5 -243 -6 -4
-11 -23 -12 -43 -4 -74 -118 -282 -195 -355 -64 -62 -138 -115 -150 -108 -5 4
7 16 28 28 32 18 39 27 39 52 0 17 6 38 14 47 8 10 9 17 3 17 -6 0 -17 -8 -24
-18 -7 -10 -48 -42 -90 -71 -42 -29 -79 -58 -81 -66 -5 -12 -20 -16 -122 -31
-22 -3 -44 -9 -49 -12 -5 -3 -34 -7 -64 -9 -53 -4 -82 -19 -82 -44 0 -7 -6 -4
-15 7 -12 15 -16 16 -24 5 -9 -14 -35 -6 -26 9 3 4 -4 6 -15 3 -31 -8 -104 16
-214 70 -125 61 -166 89 -243 169 -74 75 -106 120 -129 179 -9 24 -20 53 -24
64 -29 66 -45 168 -45 290 l0 130 41 90 c55 124 161 269 189 259 6 -3 34 15
61 39 47 42 204 137 228 137 6 0 20 8 31 16 14 11 33 14 65 10 25 -3 106 -6
180 -6z m-5085 -117 c41 -131 69 -191 91 -200 13 -5 74 -84 74 -96 0 -3 -12
-8 -26 -11 -32 -8 -52 8 -100 79 -18 28 -42 61 -53 75 -17 21 -21 44 -24 133
-2 59 -7 110 -11 114 -9 9 -7 23 3 23 5 0 26 -53 46 -117z m-2896 50 c27 -125
38 -147 124 -236 51 -53 102 -95 134 -111 131 -66 376 -91 496 -52 32 11 83
34 113 52 30 18 61 31 68 28 7 -3 18 7 25 22 18 40 24 22 10 -28 -14 -48 -27
-70 -39 -63 -4 3 -13 -2 -20 -10 -7 -8 -21 -15 -32 -15 -15 0 -18 5 -14 23 3
12 0 8 -9 -9 -10 -22 -28 -37 -63 -52 -70 -30 -134 -31 -362 -7 -43 5 -196 43
-230 58 -50 22 -109 78 -155 149 -57 85 -84 157 -92 244 -5 59 -4 64 14 64 16
0 22 -11 32 -57z m10443 5 c3 -9 43 -12 146 -13 118 0 142 -2 142 -14 0 -11 4
-10 15 5 14 17 14 15 8 -26 -6 -41 -5 -44 10 -31 10 7 17 21 17 30 0 14 -2 14
-11 1 -9 -13 -10 -13 -6 0 2 9 13 14 25 12 15 -2 22 2 22 14 0 10 3 15 6 11 4
-3 3 -14 -1 -24 -5 -10 -7 -22 -6 -26 1 -5 -3 -6 -8 -3 -6 4 -8 -7 -4 -29 4
-28 2 -35 -11 -35 -9 0 -19 0 -23 0 -5 0 -8 4 -8 9 0 5 -3 13 -7 17 -5 4 -8
-5 -8 -19 0 -15 -5 -27 -11 -27 -6 0 -8 10 -5 23 6 21 6 21 -6 -2 -12 -23 -12
-23 -148 -17 -74 3 -166 6 -204 6 l-68 0 6 38 c16 92 13 87 64 90 26 2 49 7
50 13 5 13 20 11 24 -3z m-8537 -75 c10 -40 24 -53 56 -53 16 0 47 -12 69 -26
41 -27 86 -41 159 -49 24 -3 46 -7 48 -9 2 -2 -28 -11 -68 -20 -88 -20 -183
-21 -258 -2 -31 8 -89 14 -129 14 -50 -1 -78 4 -90 14 -9 8 -32 21 -50 28 -33
13 -34 14 -27 59 10 63 13 66 45 36 63 -59 65 -60 95 -55 22 4 36 16 53 48 20
36 28 42 57 42 27 0 34 -4 40 -27z m2640 -110 c-8 -54 -28 -135 -43 -174 -7
-16 -30 -36 -64 -53 -29 -15 -66 -36 -83 -46 -16 -10 -52 -21 -78 -25 l-48 -6
5 47 c5 51 37 94 68 94 10 0 35 17 56 39 20 21 69 65 107 96 39 32 72 62 73
67 10 23 13 2 7 -39z m565 -287 c0 -2 -16 -32 -35 -65 -41 -74 -29 -71 19 4
40 61 66 83 41 34 -34 -67 -137 -229 -146 -229 -15 0 -10 20 16 58 39 57 29
63 -10 7 -32 -45 -65 -75 -65 -60 0 6 98 169 133 222 18 27 47 45 47 29z m390
-38 c0 -19 2 -20 10 -8 8 12 10 12 10 -5 0 -36 -12 -68 -20 -55 -5 8 -11 -5
-15 -31 -7 -43 -11 -63 -36 -164 -19 -76 -79 -178 -95 -162 -3 3 3 22 14 44
18 36 28 63 67 188 9 28 19 77 22 110 7 69 18 105 33 105 5 0 10 -10 10 -22z
m3803 -218 c4 -33 4 -33 5 8 1 23 7 42 12 42 6 0 10 -6 10 -12 0 -9 4 -8 10 2
5 8 10 11 11 5 1 -5 3 -14 4 -20 2 -5 3 -19 4 -29 1 -26 18 -9 24 24 4 21 4
20 6 -7 0 -18 6 -33 12 -33 6 0 8 8 5 18 -9 28 8 46 32 33 15 -8 22 -8 25 2 3
7 9 2 15 -13 l10 -25 11 25 c10 21 11 16 8 -32 -2 -31 0 -55 5 -52 4 3 8 25 8
50 0 24 3 44 8 44 4 0 7 -27 7 -60 0 -68 13 -119 14 -55 1 22 4 51 8 64 4 17
3 22 -5 17 -14 -9 -15 3 -2 24 10 16 11 15 29 -15 11 -19 11 -19 9 -1 -2 15 4
20 30 23 25 3 32 0 33 -14 1 -17 2 -17 6 0 5 20 14 22 31 5 9 -9 12 -9 12 1 0
11 3 11 15 1 12 -10 15 -10 16 1 0 12 1 12 6 0 4 -11 7 -11 13 0 5 8 11 -6 15
-37 9 -57 24 -93 25 -56 0 12 4 30 9 40 5 9 13 26 17 37 6 16 9 12 14 -20 6
-35 7 -36 9 -10 1 23 3 27 11 15 8 -12 10 -9 10 13 0 24 2 26 19 17 11 -5 22
-20 24 -32 3 -17 5 -14 6 10 0 17 5 32 10 32 7 0 23 -411 16 -419 -2 -2 -8 12
-14 30 l-9 34 -2 -40 -3 -40 -7 45 c-4 25 -8 96 -9 159 0 63 -3 116 -6 119 -3
3 -5 -68 -5 -158 0 -90 -2 -161 -5 -159 -2 3 -7 52 -9 108 -7 123 -16 146 -16
38 0 -42 -4 -79 -10 -82 -5 -3 -10 -21 -11 -38 l-1 -32 -11 30 -11 30 -7 -30
c-5 -25 -7 -20 -9 25 l-3 55 -7 -45 -7 -45 -3 50 -3 50 -7 -55 c-6 -51 -7 -53
-17 -30 l-12 25 -2 -30 c-2 -27 -3 -26 -9 10 l-7 40 -2 -37 c-1 -46 -21 -51
-22 -5 -1 17 -3 24 -6 15 -2 -10 -9 -18 -14 -18 -5 0 -9 -7 -9 -16 0 -8 -4
-13 -9 -9 -5 3 -7 31 -4 63 3 31 3 54 -1 51 -4 -4 -10 -31 -13 -60 -6 -64 -13
-76 -14 -28 -1 32 -2 32 -9 9 -7 -23 -8 -22 -10 10 l-2 35 -8 -29 c-5 -16 -7
-33 -4 -38 3 -4 0 -8 -7 -8 -8 0 -10 17 -5 62 4 35 5 60 2 57 -8 -7 -14 -47
-15 -91 -1 -21 -4 -38 -8 -38 -5 0 -7 28 -7 62 1 35 0 47 -3 28 -3 -19 -10
-38 -16 -42 -9 -6 -9 -8 1 -8 6 0 12 -5 12 -11 0 -5 -4 -8 -9 -4 -6 3 -14 -3
-20 -12 -8 -14 -11 -3 -12 47 -2 60 -3 61 -6 15 -5 -67 -13 -88 -23 -55 -8 25
-8 25 -9 2 -1 -14 -5 -21 -12 -16 -7 4 -9 25 -4 63 4 31 3 53 -1 48 -4 -4 -10
-29 -12 -55 -5 -61 -21 -80 -23 -26 -2 33 -3 35 -6 9 -6 -39 -23 -57 -24 -24
0 22 -1 22 -9 4 -10 -23 -12 -15 -12 60 0 28 -2 37 -4 20 -12 -88 -16 -101
-24 -80 -7 17 -9 17 -9 3 -1 -10 -4 -18 -8 -18 -5 0 -6 29 -5 65 2 36 0 65 -5
65 -9 0 -12 28 -12 95 0 107 -2 165 -7 190 -4 21 -3 27 4 20 6 -5 12 -26 15
-45z m660 -35 l3 -50 2 58 c1 31 6 57 10 57 15 0 32 -24 32 -44 0 -17 -2 -18
-10 -6 -7 11 -10 7 -10 -18 0 -18 3 -31 8 -29 4 3 8 -71 9 -164 0 -93 -3 -169
-8 -169 -4 0 -7 28 -5 63 2 34 2 50 -1 35 -5 -34 -20 -36 -26 -5 -3 12 -5 1
-4 -25 0 -26 -2 -50 -6 -54 -4 -4 -7 13 -7 37 -1 24 -3 121 -6 214 -4 115 -2
167 5 160 5 -5 12 -32 14 -60z m695 20 c10 17 11 13 12 -30 0 -27 3 -94 7
-147 4 -71 3 -98 -5 -98 -8 0 -12 29 -12 92 0 50 -3 88 -6 85 -4 -4 -7 -48 -6
-99 0 -72 -2 -85 -8 -58 -5 19 -7 43 -4 53 3 9 0 17 -6 17 -8 0 -11 -14 -8
-40 2 -22 0 -40 -4 -40 -5 0 -8 47 -8 104 0 58 -4 107 -8 110 -4 2 -7 -57 -6
-132 1 -97 0 -124 -6 -92 -11 61 -11 301 0 275 5 -11 9 -15 9 -10 1 6 5 3 10
-4 8 -12 11 -8 17 15 l8 29 6 -25 c6 -24 6 -24 18 -5z m-6304 -147 c-7 -23 -6
-23 15 -4 11 11 21 14 21 8 0 -6 -5 -14 -10 -17 -6 -4 -8 -11 -4 -16 3 -6 16
1 29 16 25 26 53 35 38 13 -11 -18 -12 -68 -2 -68 5 0 9 13 9 30 0 19 7 33 19
40 31 16 33 13 26 -30 -4 -26 -3 -40 4 -40 6 0 11 11 11 24 0 14 5 28 10 31 6
4 10 -8 10 -30 0 -22 4 -34 10 -30 6 3 10 17 10 31 0 30 18 31 30 2 l9 -23 0
23 c1 26 3 26 39 8 15 -7 71 -23 125 -35 59 -13 112 -31 130 -44 18 -13 45
-30 61 -38 l29 -14 -44 -2 c-38 -2 -148 -21 -312 -53 -89 -18 -118 -13 -218
38 -113 57 -156 85 -140 90 6 2 20 23 30 48 11 25 27 44 35 44 9 0 16 5 16 10
0 6 5 10 11 10 6 0 8 -9 3 -22z m2146 -71 c14 -4 47 -9 73 -12 l48 -6 -7 -37
c-3 -20 -10 -41 -15 -46 -4 -5 -60 3 -131 19 -169 39 -179 39 -298 15 -58 -12
-136 -23 -175 -26 -38 -2 -115 -8 -170 -14 -55 -5 -129 -10 -165 -11 -44 -1
-83 -9 -120 -25 -76 -33 -205 -41 -590 -38 -385 3 -349 2 -330 14 8 6 31 9 50
9 19 -1 71 8 115 20 55 14 120 22 205 25 140 4 280 19 300 31 7 4 34 9 59 11
25 1 96 5 156 8 222 12 261 16 330 31 86 19 196 35 295 41 41 3 76 6 77 7 3 4
270 -11 293 -16z m3843 -197 c-30 -28 -52 -41 -75 -42 -78 -4 -114 -3 -131 5
-9 4 -23 5 -30 0 -6 -4 -30 -8 -52 -9 -22 -1 -42 -2 -45 -4 -3 -1 -9 -2 -14
-1 -4 1 -14 -4 -22 -10 -12 -10 -13 -9 -8 6 5 12 4 16 -3 12 -6 -4 -32 -9 -58
-12 -26 -2 -56 -12 -67 -22 -20 -18 -20 -17 -14 5 4 12 4 22 1 22 -4 0 -15
-10 -26 -22 -10 -13 -17 -16 -14 -8 8 24 -126 21 -152 -3 -24 -21 -55 -13 -46
11 5 13 0 11 -19 -5 -29 -28 -40 -29 -31 -5 5 13 0 11 -20 -7 -26 -24 -39 -17
-15 7 7 7 8 12 2 12 -6 0 -19 -9 -29 -20 -14 -15 -21 -17 -26 -8 -6 9 -12 8
-26 -2 -16 -13 -16 -12 1 8 20 23 9 31 -12 10 -19 -19 -61 -18 -54 2 4 12 2
12 -15 -2 -23 -21 -40 -24 -24 -4 9 11 8 15 -5 20 -9 3 -20 4 -25 0 -5 -3 -9
1 -9 8 0 7 -9 2 -20 -12 -17 -23 -19 -23 -14 -4 9 33 -16 41 -37 13 -22 -29
-26 -13 -4 18 13 18 13 22 0 33 -31 26 -18 39 28 28 61 -14 872 -10 972 5 44
7 103 13 130 14 l50 3 -42 -40z"/>
<path d="M10358 4942 c7 -2 -1 -11 -20 -21 -58 -29 -68 -75 -64 -288 4 -178 4
-182 30 -216 41 -53 72 -62 226 -61 140 0 308 10 334 20 8 3 17 11 20 19 4 10
-3 11 -32 2 -20 -6 -129 -11 -242 -11 -298 -1 -300 0 -300 259 0 175 9 228 43
247 33 19 328 23 419 7 91 -17 90 -17 95 -2 5 14 -45 29 -127 38 -64 7 -401
14 -382 7z"/>
<path d="M7956 4794 c-21 -19 -43 -31 -49 -27 -6 4 -8 0 -4 -10 5 -12 -1 -19
-18 -23 -14 -3 -22 -10 -19 -15 3 -5 -2 -11 -10 -14 -53 -17 -51 -16 -36 -25
12 -7 8 -12 -16 -20 -19 -7 -31 -18 -30 -27 0 -9 -10 -23 -24 -30 -14 -7 -25
-18 -25 -25 0 -7 -7 -13 -15 -13 -8 0 -23 -17 -32 -37 -14 -32 -22 -38 -48
-38 -16 0 -30 -4 -30 -9 0 -9 177 -101 195 -101 4 0 24 -16 43 -36 95 -98 205
-132 371 -113 51 6 95 8 98 5 3 -2 21 4 41 14 23 12 77 23 140 30 57 5 127 17
155 25 29 8 67 14 86 12 46 -3 50 16 6 32 -19 7 -35 17 -35 22 0 7 -12 8 -32
4 -25 -6 -30 -4 -25 7 4 11 -1 14 -20 10 -18 -3 -24 -1 -19 7 9 14 -9 14 -37
0 -16 -9 -22 -9 -25 0 -2 6 -10 11 -17 11 -7 0 -16 6 -18 13 -3 6 -6 -5 -6
-25 -1 -24 -6 -38 -14 -38 -7 0 -13 12 -12 28 0 18 -5 26 -14 24 -7 -2 -21 3
-30 10 -9 7 -33 22 -53 32 -21 11 -38 23 -38 28 0 5 -10 8 -22 6 -13 -2 -21
-7 -18 -11 6 -10 -29 -32 -37 -24 -3 3 4 16 16 28 13 14 18 26 12 32 -5 5 -7
16 -4 23 17 45 -53 -26 -73 -73 -8 -18 -19 -33 -24 -33 -6 0 -10 -9 -10 -19 0
-21 -52 -81 -70 -81 -13 0 3 26 25 42 5 4 6 11 1 15 -5 4 -11 3 -13 -4 -12
-34 -45 -62 -73 -61 -16 1 -27 5 -24 10 3 5 11 7 18 5 13 -5 46 20 62 48 6 11
18 20 27 20 14 0 67 49 67 62 0 3 11 21 25 39 26 34 30 44 17 44 -4 0 -27 -29
-50 -65 -24 -36 -48 -65 -53 -65 -10 0 45 83 84 128 17 18 18 22 5 22 -9 0
-19 -7 -22 -16 -4 -9 -9 -14 -13 -11 -3 4 2 18 11 33 18 26 17 26 -6 19 -21
-7 -22 -6 -9 9 13 15 11 20 -14 42 -37 31 -43 31 -75 -10 -14 -18 -13 -19 3
-13 9 3 17 3 17 -2 0 -13 -39 -45 -47 -38 -3 4 -1 7 5 7 6 0 10 13 9 30 -1 16
-3 30 -3 30 -8 0 -104 -104 -100 -108 3 -3 23 14 44 37 20 22 41 41 46 41 15
0 -68 -85 -84 -85 -8 -1 -21 -4 -28 -9 -30 -18 -18 3 34 58 30 32 52 61 49 64
-3 3 -21 -11 -40 -33 -19 -21 -35 -34 -35 -29 1 19 61 76 75 70 8 -3 17 -1 21
5 3 5 14 7 23 4 11 -3 24 2 32 12 13 15 12 16 -10 10 -18 -4 -21 -3 -12 6 13
13 15 31 2 23 -5 -3 -14 1 -21 9 -7 8 -19 15 -26 15 -7 0 -21 14 -29 31 -19
35 -13 38 -109 -53 -27 -27 -54 -48 -60 -48 -12 0 68 80 123 121 18 15 29 29
24 32 -4 3 -26 -10 -47 -29z"/>
<path d="M9326 4635 c3 -16 12 -56 20 -88 17 -70 17 -77 4 -77 -5 0 -10 6 -10
14 0 22 -41 148 -46 143 -3 -3 4 -36 15 -75 12 -38 21 -79 21 -91 0 -42 -18
-11 -35 61 -10 40 -21 80 -26 88 -14 26 -10 -6 11 -82 22 -79 25 -108 11 -108
-5 0 -17 36 -27 80 -10 44 -21 80 -26 80 -11 0 -10 -3 6 -63 20 -74 28 -127
19 -127 -4 0 -18 42 -31 93 -34 142 -42 167 -53 167 -5 0 -3 -14 4 -32 8 -18
17 -51 21 -73 4 -22 14 -62 23 -88 8 -27 13 -51 10 -54 -3 -3 -15 28 -27 69
-34 117 -36 123 -42 112 -4 -5 6 -48 21 -95 32 -98 45 -158 33 -144 -5 6 -14
30 -21 53 -18 63 -23 47 -6 -18 13 -50 13 -53 -2 -35 -15 20 -15 20 -8 -2 4
-14 2 -23 -4 -23 -6 0 -11 6 -11 14 0 8 -5 18 -10 21 -7 4 -8 -3 -4 -22 10
-41 -8 -19 -29 35 -12 32 -16 37 -12 17 2 -16 7 -40 11 -52 4 -16 2 -21 -11
-19 -18 3 -35 23 -35 44 0 7 5 10 11 6 8 -4 9 1 4 17 -13 42 -25 57 -19 23 7
-37 -21 -57 -31 -23 -4 11 -9 19 -11 16 -2 -2 3 -20 11 -40 9 -21 11 -37 5
-37 -5 0 -12 11 -16 25 -3 14 -10 22 -15 19 -14 -8 -28 38 -22 70 5 22 3 27
-7 21 -8 -5 -11 -3 -8 6 3 8 -1 37 -8 64 -17 64 -17 76 1 45 17 -30 20 -18 4
12 -11 21 -12 21 -26 2 -13 -17 -14 -16 -8 17 4 23 3 39 -5 44 -7 5 -9 -2 -4
-21 4 -15 3 -25 -2 -22 -5 3 -15 0 -21 -8 -8 -8 -9 -15 -3 -19 6 -3 10 0 11 7
0 7 14 -25 30 -71 16 -47 27 -86 24 -89 -4 -5 -35 65 -35 81 0 6 -3 7 -6 4 -4
-4 0 -26 9 -49 8 -24 18 -55 21 -70 3 -14 9 -34 12 -45 5 -12 4 -15 -3 -8 -15
14 -63 160 -63 189 0 14 -5 28 -10 31 -7 4 -9 -2 -5 -17 10 -44 24 -103 30
-128 11 -43 -11 -1 -30 58 -10 29 -19 51 -22 49 -2 -2 8 -41 22 -87 15 -45 24
-84 21 -87 -3 -3 -10 7 -16 23 -27 73 -34 90 -43 99 -6 7 -7 1 -2 -15 4 -14
15 -53 24 -87 11 -44 21 -63 32 -63 8 0 57 -20 107 -44 50 -25 111 -50 134
-57 24 -7 49 -17 55 -22 9 -6 16 -1 23 17 5 14 14 37 20 51 5 14 21 29 34 34
13 5 28 23 34 40 20 56 79 138 130 177 28 22 55 54 63 74 8 19 15 38 17 43 2
4 -3 7 -12 7 -9 0 -25 -18 -36 -39 -11 -22 -24 -42 -28 -45 -11 -7 -28 30 -38
78 -3 20 -11 39 -16 42 -6 4 -8 -1 -4 -12 9 -31 25 -108 26 -121 0 -7 -4 -13
-9 -13 -5 0 -17 32 -26 70 -9 39 -21 70 -25 70 -4 0 1 -32 11 -72 21 -79 23
-102 10 -94 -5 3 -16 39 -25 78 -9 40 -21 80 -27 88 -7 11 -8 7 -3 -15z"/>
<path d="M8857 4196 c5 -24 -19 -42 -39 -30 -6 4 -13 2 -17 -3 -22 -33 -319
-76 -379 -55 -21 7 -45 7 -82 -1 -37 -9 -93 -9 -190 -3 -134 8 -139 8 -168
-14 -24 -18 -39 -22 -67 -17 -29 5 -45 1 -75 -19 -52 -35 -235 -113 -282 -120
-21 -4 -41 -11 -45 -17 -6 -9 49 -3 83 10 11 4 14 -9 14 -67 0 -44 -4 -69 -10
-65 -5 3 -7 25 -4 49 4 29 2 46 -6 51 -8 5 -10 -1 -8 -21 3 -16 1 -42 -3 -59
-6 -29 -7 -28 -9 10 l-2 40 -13 -40 c-7 -22 -13 -34 -14 -27 -1 7 -5 10 -11 7
-6 -4 -10 10 -10 34 0 60 -18 60 -22 -1 -2 -44 -6 -53 -20 -50 -12 2 -18 -4
-18 -16 0 -16 9 -19 68 -20 37 -1 120 -4 185 -7 80 -3 117 -1 117 6 0 7 -11 9
-24 7 -14 -3 -42 -2 -63 2 l-38 8 38 2 c20 1 46 3 56 4 11 0 23 4 27 9 4 4 17
7 29 7 11 0 26 5 31 10 6 6 33 12 60 13 27 1 54 7 60 12 6 6 58 21 115 33 147
32 342 85 424 117 81 31 150 55 182 61 12 2 34 9 49 14 14 6 29 8 34 5 5 -3
10 0 12 6 2 6 15 11 28 12 25 1 150 -25 223 -46 28 -8 41 -7 49 1 7 7 28 12
48 12 19 1 60 10 90 21 30 11 85 30 122 41 60 19 99 48 64 48 -17 0 -108 -32
-169 -60 -63 -28 -121 -25 -125 8 -2 12 -7 20 -12 17 -4 -3 -6 -14 -3 -25 3
-11 0 -20 -6 -20 -6 0 -11 14 -11 31 0 16 -4 28 -9 24 -5 -3 -7 -22 -4 -42 4
-26 3 -34 -5 -29 -7 4 -12 27 -12 52 0 27 -4 43 -10 39 -5 -3 -7 -19 -4 -34 4
-16 1 -32 -5 -35 -7 -5 -11 5 -11 28 0 19 -4 38 -10 41 -6 4 -10 -10 -10 -35
0 -25 -4 -39 -10 -35 -5 3 -10 26 -10 51 0 24 -4 44 -10 44 -5 0 -7 -21 -3
-51 5 -42 3 -51 -8 -47 -9 3 -16 26 -20 64 l-6 59 -1 -52 c-1 -29 -6 -53 -12
-53 -12 0 -12 6 -10 79 1 36 -2 51 -9 46 -6 -3 -11 -34 -11 -68 -1 -47 -3 -58
-11 -44 -6 9 -9 25 -8 35 3 37 -1 82 -9 82 -5 0 -6 -14 -4 -31 3 -24 1 -30 -9
-27 -8 2 -15 17 -17 31 -2 15 -7 27 -11 27 -5 0 -6 -11 -4 -24z m-939 -249 c2
-76 -1 -107 -9 -107 -8 0 -10 19 -5 68 4 38 3 79 -3 93 -7 18 -10 0 -11 -76
-1 -66 -5 -92 -10 -75 l-8 25 -1 -27 c-1 -30 -20 -39 -22 -10 -1 16 -2 16 -6
0 -2 -10 -9 -18 -15 -18 -7 0 -9 25 -5 73 3 42 2 64 -3 52 -5 -11 -9 -34 -9
-52 -1 -35 -19 -53 -32 -32 -6 10 -9 2 -9 -23 0 -24 -5 -38 -12 -38 -10 0 -12
22 -10 86 3 60 0 84 -7 79 -7 -3 -11 -41 -11 -91 0 -47 -4 -83 -8 -80 -4 2 -7
17 -6 33 1 15 2 55 3 88 l1 60 78 41 c114 61 116 60 120 -69z"/>
<path d="M8740 4004 c-30 -8 -82 -21 -115 -28 -33 -8 -80 -21 -105 -29 -25 -9
-101 -32 -170 -52 -69 -20 -163 -49 -210 -65 -86 -29 -169 -52 -250 -69 -43
-10 -42 -10 15 -5 33 3 78 12 100 19 194 64 382 119 712 209 91 25 185 29 216
9 6 -4 23 -10 37 -12 47 -7 225 -4 248 5 14 6 -13 8 -80 6 -71 -3 -124 1 -171
12 -82 19 -153 19 -227 0z"/>
<path d="M9170 3689 c-19 -5 -70 -13 -112 -18 -66 -7 -83 -13 -113 -40 -24
-21 -46 -31 -68 -31 -18 0 -50 -5 -72 -10 -22 -6 -76 -10 -119 -11 -45 0 -91
-6 -105 -13 -38 -20 -160 -30 -195 -17 -17 7 -33 8 -40 2 -6 -4 -38 -5 -71 -1
-185 24 -247 29 -422 35 -133 4 -193 3 -193 -4 0 -7 36 -11 98 -12 154 -1 261
-6 352 -19 246 -34 399 -38 458 -13 20 9 74 17 119 19 46 2 102 8 125 14 24 5
59 10 79 10 24 0 45 8 63 25 15 14 37 27 49 29 12 2 54 11 94 20 39 9 92 19
118 23 25 3 48 10 51 14 7 11 -50 10 -96 -2z"/>
<path d="M4388 6268 c-27 -6 -48 -14 -48 -20 0 -5 5 -6 10 -3 6 3 10 1 10 -5
0 -6 5 -8 10 -5 6 3 10 2 10 -4 0 -5 -4 -12 -9 -15 -13 -8 -20 -57 -8 -53 6 2
11 13 12 24 2 33 31 70 59 75 49 10 51 -6 12 -78 -20 -38 -29 -60 -21 -49 9
11 21 19 26 18 5 -2 10 3 10 10 1 6 2 17 4 22 1 6 3 16 3 23 1 7 6 11 11 7 12
-7 30 25 24 43 -6 16 2 15 37 -3 17 -9 30 -20 30 -26 0 -6 -4 -8 -9 -4 -5 3
-13 0 -17 -6 -4 -8 -3 -9 4 -5 7 4 12 3 12 -3 0 -5 -4 -12 -9 -15 -9 -6 -22
-46 -15 -46 2 0 13 18 24 41 16 31 24 38 34 30 7 -6 16 -8 19 -4 14 14 6 -11
-14 -43 -11 -19 -18 -34 -16 -34 3 0 15 16 27 36 24 38 39 40 20 2 -9 -18 -6
-17 14 7 33 39 34 21 1 -27 -27 -40 -31 -53 -13 -42 8 5 9 2 5 -9 -9 -25 -2
-21 19 11 15 23 15 25 1 13 -23 -18 -21 -10 5 35 12 21 24 32 26 25 3 -9 7 -9
18 0 19 15 18 4 -2 -29 -16 -25 -15 -25 9 3 l25 30 -1 -27 c-1 -14 -5 -24 -8
-22 -4 2 -14 -7 -23 -21 -21 -31 -21 -47 0 -17 8 12 19 20 25 17 14 -9 50 57
38 71 -5 6 -35 14 -67 18 -50 6 -104 25 -164 57 -22 11 -87 10 -150 -3z"/>
<path d="M7040 5365 c-25 -18 -44 -38 -43 -44 2 -6 -21 -29 -50 -51 -28 -22
-69 -54 -89 -70 -46 -37 -59 -39 -27 -3 l24 27 -25 -17 c-14 -9 -35 -24 -47
-33 -15 -11 -27 -13 -39 -6 -14 8 -13 12 15 28 17 10 31 22 31 27 0 10 -57
-22 -72 -40 -8 -10 -7 -13 3 -13 15 0 1 -13 -89 -81 -30 -23 -51 -43 -48 -47
3 -3 -2 -15 -11 -26 -18 -20 -18 -20 7 -4 14 9 24 21 23 26 -1 6 14 23 35 38
28 21 33 23 18 6 -29 -34 -6 -25 39 14 22 19 31 31 21 28 -14 -5 -17 -4 -12 5
4 6 16 9 25 6 10 -3 30 4 45 16 15 12 29 19 32 16 3 -3 -15 -19 -41 -37 -26
-18 -44 -34 -41 -37 3 -3 32 16 66 41 61 47 77 55 64 34 -4 -6 13 3 37 19 64
44 137 108 115 100 -16 -6 -17 -5 -6 8 7 9 19 14 27 11 8 -3 12 -2 8 3 -3 5 8
19 24 30 25 18 49 62 33 60 -4 0 -27 -15 -52 -34z"/>
<path d="M3546 5098 c-17 -28 -86 -201 -86 -217 0 -8 12 -11 31 -9 28 3 33 8
44 48 7 25 26 76 44 113 17 37 29 72 26 77 -11 18 -44 10 -59 -12z"/>
<path d="M3830 5089 c0 -6 -7 -9 -15 -5 -20 7 -39 -25 -63 -109 -35 -122 -36
-135 -14 -135 23 0 62 44 62 69 0 9 11 51 25 94 28 87 29 97 15 97 -5 0 -10
-5 -10 -11z"/>
<path d="M3910 4952 c-17 -6 -55 -42 -43 -42 4 0 -3 -7 -15 -16 -27 -19 -28
-31 -2 -39 11 -3 19 -14 18 -23 -4 -47 1 -51 40 -45 20 3 44 6 53 6 13 1 19
15 24 60 3 33 4 62 0 65 -3 3 -19 -2 -34 -11 -40 -23 -46 -21 -26 9 18 27 10
45 -15 36z"/>
<path d="M10655 3858 c-110 -10 -180 -25 -227 -49 -156 -79 -299 -227 -343
-354 -53 -156 -62 -238 -35 -350 38 -165 79 -241 183 -343 82 -82 157 -133
237 -161 202 -71 325 -65 533 25 80 35 235 183 277 264 104 205 98 443 -18
664 -104 200 -359 328 -607 304z m59 -60 c3 -13 10 -65 16 -116 6 -51 19 -117
30 -145 11 -29 20 -53 20 -54 0 -2 -15 6 -32 17 -51 31 -54 24 -6 -13 57 -44
64 -88 19 -136 -32 -34 -41 -81 -21 -111 12 -18 12 -16 14 35 3 57 50 125 86
125 15 0 39 -9 53 -20 45 -36 45 -131 -1 -167 -16 -12 -16 -14 1 -24 9 -5 23
-22 31 -37 42 -80 -96 -162 -180 -107 -15 9 -25 11 -29 5 -4 -6 7 -15 24 -21
40 -14 40 -29 1 -29 -42 0 -80 -21 -123 -69 -44 -49 -66 -91 -102 -198 -15
-46 -29 -83 -31 -83 -14 0 -33 14 -28 21 3 5 -1 6 -9 3 -8 -3 -28 6 -45 20
-16 15 -35 26 -41 26 -16 0 -15 3 38 98 96 169 114 287 52 348 -33 33 -118 72
-196 89 -111 23 -146 37 -141 54 3 9 10 35 16 58 6 23 15 45 20 48 6 4 36 -1
68 -11 31 -9 95 -20 142 -24 75 -6 90 -5 128 14 79 38 103 114 104 324 l0 81
52 9 c28 5 54 10 58 11 4 0 10 -9 12 -21z m505 -287 c11 -15 25 -40 31 -55 10
-26 9 -27 -104 -81 -135 -65 -172 -94 -199 -155 -24 -54 -34 -39 -13 22 16 50
6 135 -19 154 -12 9 -2 15 46 29 33 10 97 40 142 67 45 26 85 48 89 48 4 0 16
-13 27 -29z m-865 -370 c58 -22 96 -64 96 -105 0 -24 -18 -103 -26 -114 -1 -2
-18 10 -37 28 -35 31 -79 117 -92 178 -8 37 -6 38 59 13z m693 -149 c29 -29
53 -57 53 -62 0 -6 4 -9 8 -7 4 1 26 -14 49 -33 30 -26 39 -40 33 -50 -7 -12
-11 -12 -27 1 -17 13 -17 13 -4 -4 12 -16 11 -21 -15 -48 -52 -55 -63 -56
-100 -13 -18 22 -33 44 -34 49 -1 29 -155 157 -205 170 l-30 8 40 7 c55 8 114
46 121 77 l7 25 25 -33 c14 -19 49 -58 79 -87z m-198 -73 c17 -6 31 -15 31
-19 0 -5 -21 -18 -47 -31 -49 -24 -134 -36 -178 -25 -22 6 -24 9 -15 27 28 52
130 75 209 48z m61 -77 c0 -5 -21 -41 -46 -81 -26 -39 -44 -74 -41 -77 2 -3
30 35 61 83 31 48 56 82 56 75 0 -7 -11 -29 -23 -50 -37 -57 -48 -82 -40 -82
4 0 23 27 42 60 19 32 38 57 43 54 5 -3 -1 -18 -12 -34 -11 -15 -20 -34 -20
-42 0 -7 8 -1 17 14 18 28 43 45 43 28 0 -5 -4 -12 -10 -15 -5 -3 -10 -11 -10
-17 0 -6 8 -3 19 6 18 16 20 15 41 -19 12 -19 19 -42 16 -51 -3 -8 -43 -32
-88 -54 -110 -50 -227 -69 -329 -51 -42 8 -73 19 -76 27 -6 17 24 54 43 54 18
0 44 39 37 57 -4 11 -14 5 -39 -24 -19 -21 -34 -32 -34 -25 0 8 23 37 51 65
29 29 45 41 37 27 -21 -35 -12 -57 13 -34 15 13 19 14 19 3 1 -8 14 2 30 21
37 43 39 31 3 -16 -17 -22 -29 -31 -33 -24 -5 8 -15 2 -29 -16 -22 -28 -30
-57 -10 -37 6 6 17 9 23 7 7 -3 31 22 54 54 41 58 72 92 72 77 0 -5 -10 -22
-23 -39 -13 -17 -36 -48 -51 -68 -16 -21 -24 -38 -19 -38 6 0 34 34 64 76 55
78 83 102 94 83 6 -9 -39 -89 -51 -89 -2 0 7 17 21 37 14 21 25 42 25 48 0 5
-12 -8 -27 -30 -14 -22 -39 -55 -55 -73 -15 -18 -28 -38 -28 -45 0 -7 9 -1 20
13 18 23 20 23 20 5 0 -11 24 18 61 73 58 89 69 102 69 84z"/>
<path d="M10643 3465 c-38 -27 -46 -52 -29 -85 8 -17 10 -30 5 -30 -5 0 -15
11 -21 25 -12 26 -34 36 -24 10 19 -46 19 -50 5 -37 -32 29 -76 5 -109 -61
-29 -59 28 -118 85 -87 35 19 34 43 -1 30 -45 -18 -70 16 -37 52 15 17 17 17
35 1 14 -12 21 -14 30 -5 13 13 -5 40 -36 51 -11 4 -15 10 -10 13 5 4 27 -2
48 -13 60 -29 100 -25 144 15 30 28 35 37 25 47 -7 7 -13 23 -13 35 0 41 -60
65 -97 39z"/>
<path d="M10451 3343 c-31 -38 -37 -70 -23 -121 7 -21 35 -44 74 -58 14 -5 16
-14 12 -49 -4 -25 -1 -51 6 -64 17 -32 65 -50 108 -40 35 8 91 53 80 64 -3 3
-19 -8 -36 -25 -35 -35 -70 -38 -103 -10 l-24 19 33 -12 c27 -10 38 -9 60 3
15 9 28 26 30 38 4 27 -8 28 -31 2 -22 -26 -54 -26 -62 0 -9 28 11 60 37 57
11 -1 23 3 25 10 6 18 -41 27 -67 13 -18 -9 -30 -7 -68 12 -39 19 -48 29 -55
61 -11 45 4 89 41 117 17 14 20 20 9 20 -9 0 -29 -17 -46 -37z"/>
<path d="M5666 4045 c3 -16 20 -79 36 -140 16 -60 36 -139 46 -175 13 -48 23
-68 40 -75 12 -5 22 -13 22 -17 0 -5 11 -8 25 -8 21 0 25 -5 25 -30 0 -25 4
-30 23 -30 19 0 26 -8 36 -42 17 -59 60 -145 96 -193 17 -22 37 -53 45 -70 8
-16 41 -61 74 -100 32 -38 63 -77 70 -86 6 -9 20 -21 31 -27 12 -6 41 -29 65
-51 25 -23 52 -41 60 -41 8 0 39 -12 69 -25 33 -16 58 -22 63 -17 6 6 -4 14
-23 21 -18 6 -40 17 -48 25 -9 7 -32 19 -51 25 -20 6 -57 29 -84 51 -27 23
-54 44 -60 48 -47 31 -275 370 -276 410 0 27 -32 81 -51 87 -12 4 -22 19 -26
36 -4 21 -11 29 -27 29 -40 1 -68 34 -87 106 -65 244 -82 300 -91 309 -6 7 -7
0 -2 -20z"/>
<path d="M6300 3853 c0 -5 16 -18 34 -30 62 -40 206 -175 206 -193 0 -9 9 -29
21 -44 11 -14 18 -30 15 -35 -3 -5 2 -19 12 -32 10 -13 28 -60 40 -104 27 -94
73 -188 142 -291 27 -41 50 -79 50 -84 0 -6 5 -10 10 -10 16 0 11 11 -30 75
-35 54 -112 200 -131 250 -18 46 -39 117 -39 133 0 9 -9 28 -20 42 -11 14 -20
35 -20 48 0 12 -6 25 -14 28 -8 3 -16 18 -19 33 -6 30 -14 40 -67 84 -18 16
-28 32 -24 38 4 8 3 9 -4 5 -7 -4 -12 -4 -12 1 0 4 -12 14 -27 21 -16 6 -43
26 -62 42 -32 28 -61 39 -61 23z"/>
</g>
</svg>
